<svg id="svg" version="1.1" xmlns="http://www.w3.org/2000/svg" xmlns:xlink="http://www.w3.org/1999/xlink" width="400" height="400" viewBox="0, 0, 400,400"><g id="svgg"><path id="path0" d="M71.315 70.678 C 71.157 70.776,71.008 89.929,70.984 113.344 L 70.940 155.833 73.594 155.929 C 75.913 156.013,76.268 155.950,76.397 155.429 C 76.479 155.102,76.586 137.210,76.635 115.671 C 76.684 94.132,76.777 76.425,76.841 76.321 C 76.905 76.217,132.655 76.140,200.729 76.150 L 324.500 76.167 324.585 116.083 L 324.669 156.000 327.503 156.000 L 330.336 156.000 330.251 113.267 L 330.167 70.533 200.885 70.517 C 129.780 70.508,71.474 70.580,71.315 70.678 M78.323 77.750 C 78.317 77.796,78.218 95.421,78.104 116.917 L 77.897 156.000 200.448 156.000 C 309.149 156.000,323.003 155.943,323.028 155.500 C 323.043 155.225,323.056 137.825,323.056 116.833 C 323.056 95.842,323.043 78.442,323.028 78.167 C 323.004 77.731,78.379 77.315,78.323 77.750 M207.276 92.999 C 227.627 98.702,234.776 123.817,220.390 139.067 C 204.009 156.432,174.864 146.671,172.230 122.938 C 170.570 107.978,181.246 94.457,196.500 92.201 C 198.721 91.873,204.887 92.329,207.276 92.999 M204.005 107.828 C 203.386 108.467,202.944 109.041,203.023 109.104 C 203.102 109.167,203.672 108.644,204.289 107.942 C 205.691 106.348,205.510 106.275,204.005 107.828 M214.785 111.833 C 214.784 113.483,214.840 114.200,214.910 113.427 C 214.980 112.653,214.981 111.303,214.912 110.427 C 214.843 109.550,214.786 110.183,214.785 111.833 M108.643 114.076 C 108.840 114.639,109.000 115.607,109.000 116.227 C 109.000 118.689,110.197 120.272,112.880 121.360 L 114.500 122.016 111.481 121.909 C 106.977 121.748,104.667 119.974,104.667 116.679 C 104.667 113.427,107.720 111.429,108.643 114.076 M294.817 114.513 C 296.719 118.520,293.915 121.718,288.333 121.911 L 285.500 122.009 287.120 121.356 C 289.801 120.276,291.000 118.690,291.000 116.227 C 291.000 112.717,293.444 111.620,294.817 114.513 M131.091 115.618 C 134.732 118.936,138.082 120.909,142.333 122.240 L 144.833 123.022 142.500 122.849 C 136.636 122.414,132.556 120.470,129.943 116.867 C 128.129 114.366,128.853 113.578,131.091 115.618 M271.000 114.950 C 271.000 118.398,264.090 122.393,257.333 122.851 L 254.833 123.021 257.206 122.370 C 261.306 121.245,265.199 118.999,268.909 115.618 C 270.470 114.195,271.000 114.026,271.000 114.950 M214.811 125.833 C 214.811 130.417,214.858 132.338,214.916 130.103 C 214.973 127.868,214.973 124.118,214.916 121.769 C 214.859 119.421,214.811 121.250,214.811 125.833 M200.667 119.833 C 199.857 120.658,199.270 121.333,199.361 121.333 C 199.453 121.333,200.190 120.658,201.000 119.833 C 201.810 119.008,202.397 118.333,202.305 118.333 C 202.214 118.333,201.476 119.008,200.667 119.833 M102.970 121.192 C 103.047 121.270,102.788 121.333,102.393 121.333 C 101.998 121.333,100.285 121.773,98.587 122.310 C 94.564 123.582,92.667 123.753,92.667 122.842 C 92.667 121.350,101.684 119.906,102.970 121.192 M305.758 121.599 C 306.663 121.999,307.333 122.517,307.333 122.815 C 307.333 123.754,305.478 123.596,301.413 122.310 C 299.715 121.773,297.990 121.311,297.579 121.283 C 297.169 121.256,297.508 121.132,298.333 121.009 C 300.992 120.611,304.080 120.857,305.758 121.599 M137.014 123.625 C 140.230 124.359,143.642 125.062,144.597 125.189 C 147.695 125.600,146.438 125.837,142.084 125.664 C 130.147 125.188,123.226 125.830,116.404 128.046 C 110.658 129.913,109.492 129.593,112.025 126.845 C 116.569 121.915,124.841 120.849,137.014 123.625 M281.578 123.093 C 284.711 124.181,286.597 125.306,288.131 127.005 C 290.471 129.594,289.234 129.878,283.596 128.046 C 276.801 125.838,269.665 125.175,257.916 125.658 C 253.562 125.838,252.293 125.600,255.417 125.190 C 256.379 125.063,259.433 124.446,262.203 123.817 C 269.629 122.132,270.444 122.026,275.000 122.146 C 278.393 122.236,279.614 122.412,281.578 123.093 M107.962 123.425 L 109.833 124.141 108.148 124.359 C 107.216 124.480,105.451 125.115,104.198 125.780 C 100.500 127.743,98.000 127.650,98.000 125.550 C 98.000 122.751,103.261 121.628,107.962 123.425 M298.740 122.681 C 301.565 123.466,302.885 125.738,301.168 126.863 C 300.042 127.601,298.582 127.290,295.464 125.648 C 293.777 124.759,292.514 124.324,291.567 124.305 L 290.167 124.277 291.601 123.618 C 294.117 122.462,296.721 122.121,298.740 122.681 M188.649 123.917 L 187.500 125.167 188.750 124.018 C 189.913 122.949,190.153 122.667,189.899 122.667 C 189.843 122.667,189.281 123.229,188.649 123.917 M140.187 127.687 C 146.324 128.480,153.157 128.775,155.359 128.342 C 156.198 128.177,157.323 127.951,157.859 127.839 C 159.599 127.477,154.916 129.339,152.000 130.169 C 143.693 132.532,134.504 132.161,130.887 129.316 C 127.966 127.018,130.957 126.494,140.187 127.687 M269.432 127.187 C 271.333 127.916,268.878 129.958,264.826 131.017 C 259.938 132.294,253.949 131.939,247.333 129.980 C 244.081 129.017,240.216 127.416,242.158 127.836 C 245.770 128.617,247.182 128.726,251.000 128.516 C 253.292 128.391,257.042 128.028,259.333 127.710 C 263.862 127.083,268.530 126.841,269.432 127.187 M159.594 133.750 C 156.947 138.185,155.977 139.067,153.745 139.067 C 149.929 139.067,151.543 135.346,155.946 133.996 C 157.167 133.622,158.692 133.026,159.333 132.672 C 159.975 132.318,160.531 132.022,160.570 132.014 C 160.608 132.006,160.169 132.787,159.594 133.750 M244.466 134.148 C 248.535 135.320,249.886 139.067,246.240 139.067 C 244.311 139.067,243.010 138.000,241.108 134.862 L 239.383 132.014 240.942 132.798 C 241.799 133.229,243.385 133.836,244.466 134.148 M153.667 133.111 C 153.667 133.171,152.896 133.720,151.955 134.330 C 149.364 136.009,146.975 138.627,144.115 142.921 C 140.614 148.179,140.240 148.525,139.190 147.476 C 136.690 144.976,141.023 138.182,146.822 135.509 C 149.458 134.295,153.667 132.820,153.667 133.111 M248.858 133.787 C 256.747 136.477,261.333 140.857,261.333 145.702 C 261.333 146.725,260.688 148.000,260.170 148.000 C 259.452 148.000,258.529 146.929,256.115 143.294 C 253.011 138.620,250.695 136.047,248.045 134.330 C 245.578 132.731,245.640 132.690,248.858 133.787 M158.600 181.501 C 158.545 184.159,158.612 186.334,158.750 186.334 C 158.887 186.334,159.000 184.158,159.000 181.500 C 159.000 175.247,158.730 175.248,158.600 181.501 M251.141 192.167 C 251.141 196.017,251.190 197.546,251.249 195.565 C 251.308 193.584,251.308 190.434,251.248 188.565 C 251.189 186.696,251.141 188.317,251.141 192.167 M158.798 192.500 C 158.799 195.067,158.851 196.073,158.914 194.735 C 158.978 193.398,158.977 191.298,158.914 190.069 C 158.850 188.839,158.798 189.933,158.798 192.500 M137.776 190.833 C 137.778 192.117,137.838 192.601,137.910 191.909 C 137.982 191.218,137.981 190.168,137.907 189.576 C 137.834 188.984,137.775 189.550,137.776 190.833 M283.443 190.833 C 283.444 192.117,283.504 192.601,283.577 191.909 C 283.649 191.218,283.648 190.168,283.574 189.576 C 283.500 188.984,283.441 189.550,283.443 190.833 M171.095 192.833 C 171.098 193.750,171.163 194.085,171.239 193.579 C 171.316 193.072,171.314 192.322,171.235 191.912 C 171.156 191.502,171.093 191.917,171.095 192.833 M70.637 239.250 C 70.621 245.438,70.584 252.297,70.554 254.494 L 70.501 258.487 76.334 261.674 C 79.542 263.427,84.642 266.223,87.667 267.888 C 90.692 269.553,97.592 273.348,103.000 276.323 C 108.408 279.297,114.933 282.897,117.500 284.321 C 120.067 285.746,125.392 288.677,129.333 290.835 C 133.275 292.993,137.775 295.472,139.333 296.345 C 140.892 297.218,145.917 299.987,150.500 302.500 C 155.083 305.013,161.083 308.309,163.833 309.825 C 166.583 311.342,171.158 313.858,174.000 315.417 C 176.842 316.975,183.517 320.650,188.833 323.582 C 194.150 326.514,199.111 329.222,199.858 329.600 L 201.216 330.287 202.691 329.441 C 204.212 328.568,229.215 314.626,233.667 312.168 C 237.284 310.171,254.187 300.791,261.000 297.001 C 264.208 295.216,267.583 293.340,268.500 292.832 C 269.417 292.323,272.192 290.774,274.667 289.390 C 277.142 288.005,280.292 286.252,281.667 285.493 C 283.042 284.735,285.742 283.238,287.667 282.167 C 289.592 281.095,292.292 279.596,293.667 278.836 C 295.042 278.076,300.967 274.779,306.833 271.510 C 317.946 265.316,319.113 264.669,326.086 260.833 L 330.328 258.500 330.331 243.250 L 330.333 228.000 327.504 228.000 L 324.674 228.000 324.587 242.029 L 324.500 256.057 306.667 265.971 C 283.580 278.805,257.774 293.170,248.500 298.350 C 226.905 310.410,201.184 324.667,201.020 324.666 C 200.917 324.666,198.508 323.380,195.667 321.809 C 185.984 316.454,182.999 314.810,170.167 307.767 C 164.483 304.648,157.583 300.853,154.833 299.333 C 152.083 297.813,146.758 294.882,143.000 292.820 C 139.242 290.758,134.067 287.911,131.500 286.493 C 128.933 285.075,123.758 282.225,120.000 280.160 C 116.242 278.094,111.067 275.244,108.500 273.826 C 105.933 272.408,100.833 269.596,97.167 267.578 C 93.500 265.560,89.225 263.203,87.667 262.342 C 86.108 261.480,82.958 259.751,80.667 258.499 C 78.375 257.247,76.408 256.085,76.296 255.916 C 76.183 255.747,76.157 249.397,76.238 241.804 L 76.385 228.000 73.526 228.000 L 70.667 228.000 70.637 239.250 M77.667 241.598 L 77.667 255.195 83.917 258.603 C 90.297 262.082,95.686 265.041,107.500 271.555 C 111.167 273.576,117.917 277.295,122.500 279.819 C 127.083 282.343,133.833 286.063,137.500 288.086 C 141.167 290.109,146.267 292.920,148.833 294.333 C 151.400 295.746,156.500 298.555,160.167 300.574 C 163.833 302.594,172.233 307.213,178.833 310.838 C 185.433 314.464,193.122 318.700,195.918 320.252 L 201.004 323.073 210.222 317.953 C 215.292 315.137,220.203 312.410,221.137 311.892 C 223.389 310.642,228.892 307.573,232.000 305.833 C 233.375 305.064,236.075 303.564,238.000 302.500 C 239.925 301.436,242.625 299.929,244.000 299.150 C 247.782 297.009,278.856 279.729,281.333 278.390 C 282.525 277.746,284.060 276.870,284.743 276.443 C 285.427 276.016,286.057 275.667,286.144 275.667 C 286.230 275.667,287.846 274.791,289.734 273.721 C 291.622 272.651,294.742 270.904,296.667 269.838 C 298.592 268.772,301.292 267.270,302.667 266.500 C 304.042 265.730,306.742 264.230,308.667 263.167 C 312.156 261.239,314.554 259.901,320.082 256.802 C 321.686 255.902,323.011 254.979,323.027 254.750 C 323.065 254.215,323.066 228.777,323.028 228.333 C 323.009 228.112,281.870 228.000,200.333 228.000 L 77.667 228.000 77.667 241.598 M149.667 243.825 C 149.667 245.304,149.675 245.315,150.666 245.117 C 152.112 244.828,152.667 245.446,152.667 247.346 C 152.667 248.313,152.831 249.011,153.083 249.113 C 153.313 249.205,152.900 249.281,152.167 249.281 C 151.433 249.281,151.021 249.205,151.250 249.113 C 151.878 248.859,151.803 245.698,151.162 245.452 C 150.885 245.346,150.435 245.444,150.162 245.670 C 149.549 246.180,149.487 248.872,150.083 249.113 C 150.313 249.205,149.900 249.281,149.167 249.281 C 148.433 249.281,148.021 249.205,148.250 249.113 C 148.542 248.995,148.667 248.010,148.667 245.833 C 148.667 243.656,148.542 242.672,148.250 242.554 C 148.021 242.462,148.246 242.374,148.750 242.360 C 149.617 242.335,149.667 242.414,149.667 243.825 M182.000 245.639 C 182.000 247.971,182.123 248.994,182.417 249.113 C 182.646 249.205,182.233 249.281,181.500 249.281 C 180.767 249.281,180.354 249.205,180.583 249.113 C 180.875 248.995,181.000 248.010,181.000 245.833 C 181.000 243.656,180.875 242.672,180.583 242.554 C 180.354 242.462,180.579 242.374,181.083 242.360 L 182.000 242.333 182.000 245.639 M188.000 245.639 C 188.000 247.981,188.121 248.988,188.417 249.095 C 188.646 249.178,187.892 249.250,186.740 249.256 C 184.303 249.268,183.667 248.833,183.667 247.151 C 183.667 245.767,184.856 244.808,186.164 245.136 C 186.951 245.334,187.000 245.268,187.000 244.031 C 187.000 243.058,186.848 242.676,186.417 242.563 C 186.096 242.479,186.321 242.393,186.917 242.372 L 188.000 242.333 188.000 245.639 M200.139 242.536 C 200.828 242.800,200.822 243.667,200.131 243.667 C 199.779 243.667,199.665 243.485,199.798 243.139 C 199.926 242.804,199.848 242.661,199.584 242.748 C 198.869 242.982,198.851 244.993,199.562 245.039 C 200.120 245.074,200.121 245.089,199.583 245.230 C 199.119 245.351,199.000 245.747,199.000 247.167 C 199.000 248.586,199.119 248.982,199.583 249.104 C 199.904 249.187,199.492 249.262,198.667 249.268 C 197.842 249.275,197.354 249.205,197.583 249.113 C 197.845 249.007,198.000 248.271,198.000 247.139 C 198.000 245.931,197.862 245.325,197.583 245.307 C 197.250 245.286,197.250 245.247,197.583 245.113 C 197.813 245.020,198.000 244.537,198.000 244.039 C 198.000 242.627,198.840 242.037,200.139 242.536 M250.333 243.825 C 250.333 245.304,250.342 245.315,251.333 245.117 C 252.778 244.828,253.333 245.446,253.333 247.346 C 253.333 248.313,253.498 249.011,253.750 249.113 C 253.979 249.205,253.567 249.281,252.833 249.281 C 252.100 249.281,251.688 249.205,251.917 249.113 C 252.545 248.859,252.469 245.698,251.829 245.452 C 251.552 245.346,251.102 245.444,250.829 245.670 C 250.215 246.180,250.153 248.872,250.750 249.113 C 250.979 249.205,250.567 249.281,249.833 249.281 C 249.100 249.281,248.688 249.205,248.917 249.113 C 249.208 248.995,249.333 248.010,249.333 245.833 C 249.333 243.656,249.208 242.672,248.917 242.554 C 248.688 242.462,248.912 242.374,249.417 242.360 C 250.284 242.335,250.333 242.414,250.333 243.825 M105.899 245.330 L 107.500 247.661 107.601 245.611 C 107.670 244.198,107.566 243.475,107.267 243.285 C 106.995 243.113,107.269 243.023,108.000 243.044 C 108.642 243.062,108.904 243.146,108.583 243.230 C 108.083 243.361,108.000 243.804,108.000 246.358 C 108.000 249.981,107.840 250.009,105.603 246.770 L 103.833 244.206 103.734 246.490 C 103.664 248.091,103.763 248.856,104.067 249.048 C 104.342 249.223,104.073 249.323,103.333 249.323 C 102.558 249.323,102.318 249.227,102.617 249.038 C 102.931 248.839,103.067 247.975,103.067 246.167 C 103.067 244.359,102.931 243.495,102.617 243.295 C 102.313 243.103,102.512 243.009,103.232 243.005 C 104.179 243.001,104.477 243.261,105.899 245.330 M121.333 243.500 C 121.333 243.775,121.108 244.000,120.833 244.000 C 120.558 244.000,120.333 243.775,120.333 243.500 C 120.333 243.225,120.558 243.000,120.833 243.000 C 121.108 243.000,121.333 243.225,121.333 243.500 M163.634 243.273 C 163.155 243.477,163.174 243.719,163.823 245.650 C 164.614 248.003,164.646 247.997,165.497 245.333 C 166.290 242.847,166.478 242.738,167.102 244.401 C 167.397 245.189,167.813 246.283,168.026 246.833 L 168.412 247.833 169.156 245.667 C 169.822 243.725,169.844 243.476,169.366 243.273 C 169.042 243.136,169.290 243.048,170.000 243.050 C 170.642 243.051,170.988 243.125,170.770 243.214 C 170.552 243.303,169.891 244.723,169.302 246.370 C 168.121 249.672,168.038 249.688,166.867 246.824 C 165.963 244.612,165.978 244.603,164.980 247.936 C 164.405 249.853,164.253 249.742,162.995 246.487 C 162.390 244.922,161.656 243.501,161.364 243.331 C 160.988 243.111,161.318 243.024,162.500 243.034 C 163.417 243.041,163.927 243.149,163.634 243.273 M209.332 243.980 L 209.333 244.792 208.654 244.063 C 207.323 242.634,205.451 243.348,205.116 245.412 C 204.685 248.067,206.399 249.715,208.398 248.568 C 208.912 248.273,209.333 248.156,209.333 248.308 C 209.333 248.461,208.886 248.771,208.339 248.998 C 205.379 250.224,202.731 247.443,204.184 244.633 C 205.120 242.823,209.329 242.288,209.332 243.980 M211.667 243.500 C 211.667 243.775,211.442 244.000,211.167 244.000 C 210.892 244.000,210.667 243.775,210.667 243.500 C 210.667 243.225,210.892 243.000,211.167 243.000 C 211.442 243.000,211.667 243.225,211.667 243.500 M243.667 243.500 C 243.667 243.775,243.442 244.000,243.167 244.000 C 242.892 244.000,242.667 243.775,242.667 243.500 C 242.667 243.225,242.892 243.000,243.167 243.000 C 243.442 243.000,243.667 243.225,243.667 243.500 M261.592 243.519 C 263.292 244.709,262.145 247.333,259.926 247.333 C 258.830 247.333,258.540 248.831,259.583 249.104 C 259.904 249.187,259.492 249.262,258.667 249.268 C 257.842 249.275,257.354 249.205,257.583 249.113 C 257.870 248.997,258.000 248.077,258.000 246.167 C 258.000 244.256,257.870 243.336,257.583 243.221 C 257.354 243.128,257.996 243.041,259.009 243.026 C 260.175 243.010,261.124 243.191,261.592 243.519 M278.333 243.500 C 278.333 243.775,278.108 244.000,277.833 244.000 C 277.558 244.000,277.333 243.775,277.333 243.500 C 277.333 243.225,277.558 243.000,277.833 243.000 C 278.108 243.000,278.333 243.225,278.333 243.500 M285.667 243.500 C 285.667 243.775,285.442 244.000,285.167 244.000 C 284.892 244.000,284.667 243.775,284.667 243.500 C 284.667 243.225,284.892 243.000,285.167 243.000 C 285.442 243.000,285.667 243.225,285.667 243.500 M259.000 245.145 C 259.000 246.906,259.043 247.000,259.840 247.000 C 261.725 247.000,261.790 243.612,259.911 243.395 C 259.015 243.291,259.000 243.320,259.000 245.145 M134.333 244.333 C 134.333 244.789,134.571 245.014,135.083 245.045 L 135.833 245.091 135.083 245.235 C 134.413 245.364,134.333 245.576,134.333 247.229 C 134.333 248.914,134.392 249.062,135.000 248.903 C 135.367 248.807,135.584 248.865,135.481 249.031 C 135.156 249.556,133.703 249.358,133.375 248.745 C 133.083 248.200,132.896 246.198,132.969 244.417 C 133.010 243.427,134.333 243.346,134.333 244.333 M146.000 244.333 C 146.000 244.789,146.237 245.014,146.750 245.045 L 147.500 245.091 146.750 245.235 C 146.080 245.364,146.000 245.576,146.000 247.229 C 146.000 248.914,146.059 249.062,146.667 248.903 C 147.034 248.807,147.250 248.865,147.147 249.031 C 146.823 249.556,145.370 249.358,145.042 248.745 C 144.750 248.200,144.562 246.198,144.636 244.417 C 144.677 243.427,146.000 243.346,146.000 244.333 M246.667 244.333 C 246.667 244.789,246.904 245.014,247.417 245.045 L 248.167 245.091 247.417 245.235 C 246.746 245.364,246.667 245.576,246.667 247.229 C 246.667 248.914,246.726 249.062,247.334 248.903 C 247.701 248.807,247.917 248.865,247.814 249.031 C 247.490 249.556,246.037 249.358,245.708 248.745 C 245.417 248.200,245.229 246.198,245.302 244.417 C 245.343 243.427,246.667 243.346,246.667 244.333 M127.000 244.833 C 127.000 245.108,126.859 245.333,126.686 245.333 C 126.266 245.333,125.965 244.813,126.231 244.546 C 126.607 244.171,127.000 244.318,127.000 244.833 M217.333 244.833 C 217.333 245.108,217.192 245.333,217.020 245.333 C 216.599 245.333,216.298 244.813,216.565 244.546 C 216.940 244.171,217.333 244.318,217.333 244.833 M112.980 245.314 C 113.250 245.485,113.546 246.403,113.658 247.421 L 113.857 249.226 112.048 249.196 C 110.683 249.174,110.149 249.019,109.870 248.564 C 109.429 247.845,110.348 246.975,111.480 247.039 C 112.043 247.070,112.061 247.105,111.583 247.230 C 110.866 247.417,110.774 249.000,111.480 249.000 C 112.100 249.000,112.475 248.379,112.433 247.424 C 112.415 247.007,112.385 246.367,112.367 246.000 C 112.345 245.567,112.100 245.333,111.667 245.333 C 111.222 245.333,111.000 245.556,111.000 246.000 C 111.000 246.730,110.511 246.890,110.135 246.283 C 109.599 245.415,111.901 244.631,112.980 245.314 M116.465 245.255 C 116.205 245.428,116.265 245.892,116.669 246.833 L 117.240 248.167 117.785 246.881 C 118.084 246.174,118.246 245.462,118.145 245.298 C 118.044 245.134,118.307 245.012,118.730 245.026 C 119.154 245.041,119.328 245.123,119.118 245.209 C 118.908 245.295,118.402 246.259,117.994 247.350 C 117.076 249.804,116.870 249.812,115.816 247.428 C 115.352 246.380,114.792 245.407,114.570 245.266 C 114.343 245.123,114.751 245.010,115.500 245.010 C 116.233 245.010,116.668 245.120,116.465 245.255 M121.333 246.972 C 121.333 248.238,121.483 249.005,121.750 249.113 C 121.979 249.205,121.567 249.281,120.833 249.281 C 120.100 249.281,119.688 249.205,119.917 249.113 C 120.177 249.008,120.333 248.277,120.333 247.167 C 120.333 246.056,120.177 245.326,119.917 245.221 C 119.688 245.128,119.912 245.041,120.417 245.026 C 121.316 245.000,121.333 245.037,121.333 246.972 M126.022 245.345 C 127.591 246.185,126.451 248.000,124.355 248.000 C 123.793 248.000,123.333 248.150,123.333 248.333 C 123.333 248.517,123.998 248.667,124.810 248.667 C 127.057 248.667,127.918 249.749,126.667 251.000 C 125.480 252.187,121.922 251.517,122.876 250.286 C 123.069 250.037,123.178 248.933,123.118 247.833 C 122.977 245.239,124.072 244.301,126.022 245.345 M130.980 245.314 C 131.250 245.485,131.546 246.403,131.658 247.421 L 131.857 249.226 130.048 249.196 C 128.683 249.174,128.149 249.019,127.870 248.564 C 127.429 247.845,128.348 246.975,129.480 247.039 C 130.043 247.070,130.061 247.105,129.583 247.230 C 128.866 247.417,128.774 249.000,129.480 249.000 C 130.100 249.000,130.475 248.379,130.433 247.424 C 130.415 247.007,130.385 246.367,130.367 246.000 C 130.345 245.567,130.100 245.333,129.667 245.333 C 129.222 245.333,129.000 245.556,129.000 246.000 C 129.000 246.730,128.511 246.890,128.135 246.283 C 127.599 245.415,129.901 244.631,130.980 245.314 M140.148 245.741 C 140.924 246.849,140.806 247.000,139.167 247.000 C 137.921 247.000,137.667 247.106,137.667 247.626 C 137.667 248.558,138.517 249.107,139.579 248.860 C 140.262 248.702,140.371 248.734,140.000 248.985 C 138.711 249.857,136.333 248.679,136.333 247.167 C 136.333 245.386,139.159 244.329,140.148 245.741 M157.481 245.741 C 158.257 246.849,158.140 247.000,156.500 247.000 C 155.255 247.000,155.000 247.106,155.000 247.626 C 155.000 248.558,155.850 249.107,156.912 248.860 C 157.595 248.702,157.704 248.734,157.333 248.985 C 156.044 249.857,153.667 248.679,153.667 247.167 C 153.667 245.386,156.493 244.329,157.481 245.741 M174.592 245.519 C 175.110 245.881,175.333 246.378,175.333 247.167 C 175.333 249.114,173.049 250.049,171.667 248.667 C 169.739 246.739,172.339 243.941,174.592 245.519 M177.667 245.326 C 177.667 245.524,177.999 245.501,178.509 245.269 C 179.148 244.978,179.446 244.979,179.742 245.276 C 180.352 245.885,179.533 246.581,178.862 246.024 C 178.088 245.382,177.667 245.901,177.667 247.495 C 177.667 248.601,177.807 248.988,178.250 249.104 C 178.571 249.187,178.158 249.262,177.333 249.268 C 176.508 249.275,176.021 249.205,176.250 249.113 C 176.510 249.008,176.667 248.277,176.667 247.167 C 176.667 246.056,176.510 245.326,176.250 245.221 C 176.021 245.128,176.246 245.041,176.750 245.026 C 177.254 245.012,177.667 245.147,177.667 245.326 M195.592 245.519 C 196.110 245.881,196.333 246.378,196.333 247.167 C 196.333 249.114,194.049 250.049,192.667 248.667 C 190.739 246.739,193.339 243.941,195.592 245.519 M211.667 246.972 C 211.667 248.238,211.816 249.005,212.083 249.113 C 212.313 249.205,211.900 249.281,211.167 249.281 C 210.433 249.281,210.021 249.205,210.250 249.113 C 210.510 249.008,210.667 248.277,210.667 247.167 C 210.667 246.056,210.510 245.326,210.250 245.221 C 210.021 245.128,210.246 245.041,210.750 245.026 C 211.650 245.000,211.667 245.037,211.667 246.972 M216.355 245.345 C 217.924 246.185,216.785 248.000,214.689 248.000 C 214.127 248.000,213.667 248.150,213.667 248.333 C 213.667 248.517,214.331 248.667,215.143 248.667 C 217.390 248.667,218.251 249.749,217.000 251.000 C 215.813 252.187,212.255 251.517,213.210 250.286 C 213.403 250.037,213.512 248.933,213.452 247.833 C 213.310 245.239,214.405 244.301,216.355 245.345 M221.313 245.314 C 221.584 245.485,221.879 246.403,221.991 247.421 L 222.190 249.226 220.381 249.196 C 219.016 249.174,218.482 249.019,218.203 248.564 C 217.762 247.845,218.681 246.975,219.814 247.039 C 220.376 247.070,220.395 247.105,219.917 247.230 C 219.199 247.417,219.107 249.000,219.814 249.000 C 220.433 249.000,220.809 248.379,220.767 247.424 C 220.748 247.007,220.718 246.367,220.700 246.000 C 220.678 245.567,220.433 245.333,220.000 245.333 C 219.556 245.333,219.333 245.556,219.333 246.000 C 219.333 246.730,218.844 246.890,218.469 246.283 C 217.933 245.415,220.234 244.631,221.313 245.314 M224.667 245.326 C 224.667 245.524,224.999 245.501,225.509 245.269 C 226.148 244.978,226.446 244.979,226.742 245.276 C 227.352 245.885,226.533 246.581,225.862 246.024 C 225.088 245.382,224.667 245.901,224.667 247.495 C 224.667 248.601,224.807 248.988,225.250 249.104 C 225.571 249.187,225.158 249.262,224.333 249.268 C 223.508 249.275,223.021 249.205,223.250 249.113 C 223.510 249.008,223.667 248.277,223.667 247.167 C 223.667 246.056,223.510 245.326,223.250 245.221 C 223.021 245.128,223.246 245.041,223.750 245.026 C 224.254 245.012,224.667 245.147,224.667 245.326 M230.667 245.759 C 230.667 246.333,230.625 246.339,230.126 245.840 C 229.560 245.274,228.474 245.272,228.536 245.838 C 228.556 246.019,229.042 246.380,229.615 246.642 C 231.709 247.595,231.124 249.412,228.777 249.245 C 227.936 249.186,227.668 249.013,227.667 248.532 C 227.667 247.926,227.696 247.923,228.309 248.478 C 228.970 249.076,230.013 249.090,230.064 248.500 C 230.080 248.317,229.547 247.903,228.880 247.581 C 226.948 246.648,227.424 244.918,229.572 245.063 C 230.392 245.118,230.667 245.292,230.667 245.759 M236.190 245.295 C 235.967 245.657,236.636 247.667,236.979 247.667 C 237.115 247.667,237.425 247.067,237.667 246.333 C 238.223 244.647,238.458 244.660,239.161 246.416 L 239.728 247.833 240.222 246.889 C 240.494 246.370,240.635 245.732,240.536 245.472 C 240.412 245.152,240.591 245.002,241.094 245.005 C 241.506 245.008,241.678 245.119,241.483 245.255 C 241.290 245.390,240.858 246.250,240.522 247.167 C 239.661 249.521,239.481 249.596,238.643 247.956 L 237.898 246.500 237.380 247.917 C 236.709 249.752,236.648 249.728,235.455 247.167 L 234.446 245.000 235.410 245.000 C 235.939 245.000,236.291 245.133,236.190 245.295 M243.667 246.972 C 243.667 248.238,243.816 249.005,244.083 249.113 C 244.313 249.205,243.900 249.281,243.167 249.281 C 242.433 249.281,242.021 249.205,242.250 249.113 C 242.510 249.008,242.667 248.277,242.667 247.167 C 242.667 246.056,242.510 245.326,242.250 245.221 C 242.021 245.128,242.246 245.041,242.750 245.026 C 243.650 245.000,243.667 245.037,243.667 246.972 M264.667 245.326 C 264.667 245.524,264.999 245.501,265.509 245.269 C 266.148 244.978,266.446 244.979,266.742 245.276 C 267.352 245.885,266.533 246.581,265.862 246.024 C 265.088 245.382,264.667 245.901,264.667 247.495 C 264.667 248.601,264.807 248.988,265.250 249.104 C 265.571 249.187,265.158 249.262,264.333 249.268 C 263.508 249.275,263.021 249.205,263.250 249.113 C 263.510 249.008,263.667 248.277,263.667 247.167 C 263.667 246.056,263.510 245.326,263.250 245.221 C 263.021 245.128,263.246 245.041,263.750 245.026 C 264.254 245.012,264.667 245.147,264.667 245.326 M271.148 245.741 C 271.924 246.849,271.806 247.000,270.167 247.000 C 268.921 247.000,268.667 247.106,268.667 247.626 C 268.667 248.558,269.517 249.107,270.579 248.860 C 271.262 248.702,271.371 248.734,271.000 248.985 C 269.711 249.857,267.333 248.679,267.333 247.167 C 267.333 245.386,270.159 244.329,271.148 245.741 M275.676 245.338 C 276.402 245.727,276.200 246.722,275.453 246.436 C 275.183 246.332,275.045 246.031,275.146 245.767 C 275.277 245.425,275.123 245.318,274.608 245.394 C 273.672 245.531,273.194 246.925,273.662 248.153 C 273.956 248.927,274.167 249.051,274.988 248.931 C 275.525 248.852,275.889 248.910,275.796 249.060 C 275.473 249.584,273.662 249.329,273.000 248.667 C 271.201 246.867,273.407 244.124,275.676 245.338 M278.333 246.972 C 278.333 248.238,278.483 249.005,278.750 249.113 C 278.979 249.205,278.567 249.281,277.833 249.281 C 277.100 249.281,276.688 249.205,276.917 249.113 C 277.177 249.008,277.333 248.277,277.333 247.167 C 277.333 246.056,277.177 245.326,276.917 245.221 C 276.688 245.128,276.912 245.041,277.417 245.026 C 278.316 245.000,278.333 245.037,278.333 246.972 M283.000 245.759 C 283.000 246.333,282.958 246.339,282.460 245.840 C 281.893 245.274,280.807 245.272,280.869 245.838 C 280.889 246.019,281.375 246.380,281.949 246.642 C 284.043 247.595,283.457 249.412,281.110 249.245 C 280.270 249.186,280.001 249.013,280.001 248.532 C 280.000 247.926,280.030 247.923,280.642 248.478 C 281.303 249.076,282.347 249.090,282.397 248.500 C 282.413 248.317,281.880 247.903,281.213 247.581 C 279.282 246.648,279.758 244.918,281.906 245.063 C 282.725 245.118,283.000 245.292,283.000 245.759 M285.667 246.972 C 285.667 248.238,285.816 249.005,286.083 249.113 C 286.313 249.205,285.900 249.281,285.167 249.281 C 284.433 249.281,284.021 249.205,284.250 249.113 C 284.510 249.008,284.667 248.277,284.667 247.167 C 284.667 246.056,284.510 245.326,284.250 245.221 C 284.021 245.128,284.246 245.041,284.750 245.026 C 285.650 245.000,285.667 245.037,285.667 246.972 M290.592 245.519 C 291.110 245.881,291.333 246.378,291.333 247.167 C 291.333 249.114,289.049 250.049,287.667 248.667 C 285.739 246.739,288.339 243.941,290.592 245.519 M296.250 245.413 C 296.479 245.597,296.667 246.467,296.667 247.346 C 296.667 248.313,296.831 249.011,297.083 249.113 C 297.313 249.205,296.900 249.281,296.167 249.281 C 295.433 249.281,295.021 249.205,295.250 249.113 C 295.878 248.859,295.803 245.698,295.162 245.452 C 294.885 245.346,294.435 245.444,294.162 245.670 C 293.549 246.180,293.487 248.872,294.083 249.113 C 294.313 249.205,293.900 249.281,293.167 249.281 C 292.433 249.281,292.021 249.205,292.250 249.113 C 292.510 249.008,292.667 248.277,292.667 247.167 C 292.667 246.049,292.512 245.332,292.250 245.235 C 292.021 245.150,292.733 245.080,293.833 245.079 C 294.933 245.078,296.021 245.228,296.250 245.413 M124.137 245.789 C 123.802 246.663,124.145 247.500,124.838 247.500 C 125.351 247.500,125.500 247.275,125.500 246.505 C 125.500 245.414,124.486 244.882,124.137 245.789 M137.875 245.844 C 137.569 246.642,137.589 246.667,138.524 246.667 C 139.160 246.667,139.353 246.516,139.271 246.087 C 139.124 245.323,138.141 245.152,137.875 245.844 M155.209 245.844 C 154.902 246.642,154.922 246.667,155.858 246.667 C 156.493 246.667,156.687 246.516,156.604 246.087 C 156.457 245.323,155.474 245.152,155.209 245.844 M172.314 246.217 C 171.870 247.384,172.354 248.833,173.186 248.833 C 174.061 248.833,174.573 247.291,174.067 246.180 C 173.566 245.081,172.739 245.099,172.314 246.217 M185.067 245.733 C 184.511 246.289,184.565 248.168,185.151 248.653 C 186.118 249.457,187.000 248.754,187.000 247.180 C 187.000 245.473,186.043 244.757,185.067 245.733 M193.314 246.217 C 192.870 247.384,193.354 248.833,194.186 248.833 C 195.061 248.833,195.573 247.291,195.067 246.180 C 194.566 245.081,193.739 245.099,193.314 246.217 M214.471 245.789 C 214.135 246.663,214.478 247.500,215.171 247.500 C 215.684 247.500,215.833 247.275,215.833 246.505 C 215.833 245.414,214.819 244.882,214.471 245.789 M268.875 245.844 C 268.569 246.642,268.589 246.667,269.524 246.667 C 270.160 246.667,270.353 246.516,270.271 246.087 C 270.124 245.323,269.141 245.152,268.875 245.844 M288.314 246.217 C 287.870 247.384,288.354 248.833,289.186 248.833 C 290.061 248.833,290.573 247.291,290.067 246.180 C 289.566 245.081,288.739 245.099,288.314 246.217 M123.787 250.168 C 123.491 250.937,124.090 251.404,125.209 251.276 C 125.908 251.196,126.167 250.987,126.167 250.500 C 126.167 249.617,124.109 249.329,123.787 250.168 M214.120 250.168 C 213.825 250.937,214.424 251.404,215.543 251.276 C 216.241 251.196,216.500 250.987,216.500 250.500 C 216.500 249.617,214.442 249.329,214.120 250.168 M180.810 268.503 C 186.129 269.000,194.273 271.959,196.307 274.135 L 197.114 274.998 195.289 274.009 C 191.911 272.180,189.966 271.938,178.167 271.883 C 167.323 271.833,166.000 271.687,166.000 270.545 C 166.000 269.628,168.673 268.743,172.333 268.448 C 173.708 268.337,174.876 268.210,174.928 268.167 C 175.049 268.066,177.835 268.225,180.810 268.503 M228.462 268.506 C 230.884 268.758,234.000 269.887,234.000 270.512 C 234.000 271.690,232.742 271.832,221.833 271.883 C 209.177 271.942,206.301 272.415,203.167 274.950 C 202.800 275.247,202.950 274.993,203.500 274.386 C 205.796 271.853,214.004 268.865,219.833 268.440 C 221.300 268.333,222.543 268.210,222.596 268.166 C 222.723 268.060,226.019 268.251,228.462 268.506 M186.167 275.132 C 188.075 275.655,190.364 276.621,191.869 277.537 L 192.904 278.167 189.535 278.187 C 187.683 278.198,184.852 278.251,183.245 278.305 C 180.983 278.381,180.136 278.281,179.495 277.861 C 176.584 275.954,181.634 273.888,186.167 275.132 M219.072 275.014 C 223.257 276.177,221.643 278.469,216.755 278.305 C 215.148 278.251,212.317 278.198,210.465 278.187 L 207.096 278.167 208.131 277.533 C 212.048 275.133,216.123 274.195,219.072 275.014 M174.667 275.239 C 174.667 275.286,174.179 275.531,173.583 275.783 C 172.987 276.035,171.600 276.918,170.500 277.744 C 167.038 280.343,165.295 280.914,164.190 279.810 C 162.742 278.361,165.397 275.890,168.953 275.379 C 170.436 275.165,174.667 275.062,174.667 275.239 M233.533 276.139 C 236.563 277.526,237.186 280.333,234.463 280.333 C 233.387 280.333,231.637 279.403,229.167 277.517 C 228.067 276.677,226.829 275.901,226.417 275.792 C 224.784 275.362,225.820 275.103,228.723 275.217 C 231.063 275.308,232.190 275.524,233.533 276.139 M194.074 281.719 C 194.801 282.119,194.805 282.143,194.167 282.273 C 193.800 282.348,192.794 283.067,191.931 283.871 C 190.259 285.430,189.266 285.677,188.276 284.782 C 185.786 282.528,190.769 279.896,194.074 281.719 M211.521 282.019 C 212.467 282.909,212.559 283.864,211.782 284.724 C 210.877 285.724,209.776 285.462,208.034 283.833 C 207.152 283.008,206.166 282.333,205.841 282.333 C 205.366 282.333,205.329 282.240,205.650 281.853 C 206.551 280.768,210.302 280.874,211.521 282.019 " stroke="none" fill="#bc946c" fill-rule="evenodd"></path><path id="path1" d="M196.500 92.201 C 169.159 96.245,162.958 132.565,187.500 144.915 C 206.662 154.558,229.198 139.723,227.883 118.333 C 226.903 102.400,211.917 89.921,196.500 92.201 M210.876 105.863 C 211.586 106.154,212.792 106.998,213.557 107.740 L 214.948 109.087 214.977 121.517 C 215.001 131.825,214.925 134.027,214.533 134.419 C 214.002 134.950,186.445 135.148,185.602 134.627 C 184.906 134.197,184.919 112.769,185.615 111.956 C 186.232 111.235,186.667 111.449,186.667 112.473 C 186.667 113.695,189.586 112.959,189.733 111.701 C 189.876 110.474,191.000 110.308,191.000 111.514 C 191.000 112.282,191.108 112.382,191.750 112.210 C 192.162 112.100,192.671 112.007,192.881 112.005 C 193.090 112.002,193.355 111.625,193.470 111.167 C 193.720 110.170,194.658 110.061,194.903 111.000 C 195.033 111.495,195.358 111.667,196.167 111.667 C 196.975 111.667,197.300 111.495,197.430 111.000 C 197.526 110.633,197.833 110.333,198.113 110.333 C 198.393 110.333,198.717 110.633,198.833 111.000 C 198.965 111.414,199.338 111.667,199.817 111.667 C 200.309 111.667,200.652 111.425,200.763 111.000 C 200.859 110.633,201.116 110.333,201.333 110.333 C 201.551 110.333,201.808 110.633,201.903 111.000 C 202.240 112.288,203.000 111.755,203.000 110.232 C 203.000 107.146,207.678 104.551,210.876 105.863 M207.339 107.359 C 204.858 108.485,204.667 108.784,204.667 111.552 C 204.667 114.615,205.563 115.202,205.733 112.250 L 205.833 110.500 209.000 110.500 L 212.167 110.500 212.266 112.583 C 212.340 114.137,212.488 114.667,212.849 114.667 C 213.861 114.667,213.501 109.616,212.417 108.593 C 211.730 107.946,209.262 106.608,208.876 106.674 C 208.853 106.678,208.161 106.986,207.339 107.359 M209.559 108.200 C 209.795 108.815,208.989 109.455,208.542 109.009 C 208.178 108.645,208.512 107.667,209.000 107.667 C 209.195 107.667,209.446 107.907,209.559 108.200 M207.000 112.798 C 207.000 114.092,207.386 114.333,209.455 114.333 C 210.777 114.333,210.852 114.282,210.788 113.417 C 210.751 112.912,210.709 112.313,210.694 112.083 C 210.676 111.804,210.063 111.667,208.833 111.667 L 207.000 111.667 207.000 112.798 M106.652 113.054 C 104.750 113.702,104.036 117.068,105.350 119.194 C 106.540 121.119,108.047 121.786,111.481 121.909 L 114.500 122.016 112.880 121.360 C 110.197 120.272,109.000 118.689,109.000 116.227 C 109.000 113.674,108.161 112.540,106.652 113.054 M292.276 112.916 C 291.613 113.062,291.000 114.654,291.000 116.227 C 291.000 118.690,289.801 120.276,287.120 121.356 L 285.500 122.009 288.333 121.911 C 291.693 121.795,293.333 121.123,294.520 119.375 C 296.300 116.756,294.774 112.365,292.276 112.916 M195.917 113.239 C 195.206 113.346,195.000 113.560,195.000 114.189 C 195.000 115.025,195.292 115.136,196.583 114.790 C 197.276 114.604,197.761 112.914,197.083 113.050 C 196.946 113.077,196.421 113.162,195.917 113.239 M199.000 113.667 C 199.000 114.156,199.222 114.333,199.833 114.333 C 200.444 114.333,200.667 114.156,200.667 113.667 C 200.667 113.178,200.444 113.000,199.833 113.000 C 199.222 113.000,199.000 113.178,199.000 113.667 M202.000 113.500 C 202.000 113.775,202.225 114.000,202.500 114.000 C 202.775 114.000,203.000 113.775,203.000 113.500 C 203.000 113.225,202.775 113.000,202.500 113.000 C 202.225 113.000,202.000 113.225,202.000 113.500 M192.083 113.604 C 191.067 113.702,191.000 113.788,191.000 114.990 L 191.000 116.271 192.137 115.922 C 194.078 115.326,194.034 113.416,192.083 113.604 M188.083 114.389 L 186.667 114.706 186.667 116.496 L 186.667 118.286 188.167 117.448 C 189.546 116.677,189.667 116.505,189.667 115.305 C 189.667 114.587,189.629 114.016,189.583 114.036 C 189.537 114.055,188.862 114.214,188.083 114.389 M129.000 114.950 C 129.000 118.351,135.844 122.355,142.500 122.849 L 144.833 123.022 142.333 122.240 C 138.082 120.909,134.732 118.936,131.091 115.618 C 129.530 114.195,129.000 114.026,129.000 114.950 M268.909 115.618 C 265.199 118.999,261.306 121.245,257.206 122.370 L 254.833 123.021 257.333 122.851 C 263.304 122.446,267.412 120.514,270.057 116.867 C 271.871 114.366,271.147 113.578,268.909 115.618 M200.333 117.035 C 196.512 119.113,192.847 121.866,189.606 125.092 L 186.667 128.018 186.667 130.676 L 186.667 133.333 188.917 133.333 L 191.168 133.333 192.001 131.755 C 194.634 126.763,199.344 120.795,203.064 117.734 C 204.312 116.707,205.333 115.822,205.333 115.767 C 205.333 115.162,202.418 115.902,200.333 117.035 M205.996 117.196 C 201.282 120.666,193.000 130.826,193.000 133.137 C 193.000 133.245,194.463 133.333,196.252 133.333 L 199.503 133.333 200.301 131.250 C 202.090 126.575,205.102 121.446,208.209 117.780 C 210.516 115.058,209.327 114.744,205.996 117.196 M194.214 116.835 C 192.590 117.261,190.265 118.109,189.047 118.721 L 186.833 119.833 186.757 123.000 L 186.681 126.167 187.550 125.083 C 188.825 123.493,193.443 119.671,196.459 117.708 C 199.535 115.708,199.123 115.547,194.214 116.835 M210.277 117.454 C 206.842 121.473,203.527 126.948,201.661 131.681 L 201.010 133.333 203.992 133.333 L 206.974 133.333 207.351 131.917 C 208.424 127.875,210.576 121.719,212.477 117.250 C 213.274 115.377,211.946 115.500,210.277 117.454 M211.748 122.917 C 210.468 126.363,208.667 132.245,208.667 132.979 C 208.667 133.195,209.576 133.333,211.000 133.333 L 213.333 133.333 213.333 126.333 C 213.333 122.483,213.276 119.333,213.207 119.333 C 213.137 119.333,212.481 120.946,211.748 122.917 M95.906 121.019 C 94.107 121.459,92.667 122.270,92.667 122.842 C 92.667 123.753,94.564 123.582,98.587 122.310 C 100.285 121.773,101.998 121.333,102.393 121.333 C 102.788 121.333,103.047 121.270,102.970 121.192 C 102.648 120.870,97.072 120.734,95.906 121.019 M298.333 121.009 C 297.508 121.132,297.169 121.256,297.579 121.283 C 297.990 121.311,299.715 121.773,301.413 122.310 C 305.478 123.596,307.333 123.754,307.333 122.815 C 307.333 121.442,302.254 120.423,298.333 121.009 M120.333 122.498 C 117.205 123.204,113.681 125.048,112.025 126.845 C 109.492 129.593,110.658 129.913,116.404 128.046 C 123.226 125.830,130.147 125.188,142.084 125.664 C 146.438 125.837,147.695 125.600,144.597 125.189 C 143.642 125.062,140.230 124.359,137.014 123.625 C 130.093 122.047,124.116 121.643,120.333 122.498 M269.036 122.356 C 268.048 122.531,264.973 123.189,262.203 123.817 C 259.433 124.446,256.379 125.063,255.417 125.190 C 252.293 125.600,253.562 125.838,257.916 125.658 C 269.665 125.175,276.801 125.838,283.596 128.046 C 289.234 129.878,290.471 129.594,288.131 127.005 C 284.623 123.122,276.229 121.078,269.036 122.356 M100.885 122.802 C 98.186 123.801,97.184 125.783,98.832 126.863 C 99.935 127.586,101.324 127.306,104.198 125.780 C 105.451 125.115,107.216 124.480,108.148 124.359 L 109.833 124.141 107.962 123.425 C 105.425 122.455,102.514 122.199,100.885 122.802 M294.435 122.683 C 293.665 122.835,292.390 123.256,291.601 123.618 L 290.167 124.277 291.567 124.305 C 292.514 124.324,293.777 124.759,295.464 125.648 C 299.467 127.756,302.000 127.707,302.000 125.522 C 302.000 123.349,298.227 121.933,294.435 122.683 M130.417 127.221 C 128.867 127.846,130.787 129.715,133.970 130.678 C 139.375 132.315,145.020 132.155,152.000 130.169 C 154.916 129.339,159.599 127.477,157.859 127.839 C 157.323 127.951,156.198 128.177,155.359 128.342 C 153.157 128.775,146.324 128.480,140.187 127.687 C 135.137 127.034,131.329 126.853,130.417 127.221 M259.333 127.710 C 257.042 128.028,253.292 128.391,251.000 128.516 C 247.182 128.726,245.770 128.617,242.158 127.836 C 240.216 127.416,244.081 129.017,247.333 129.980 C 255.785 132.483,264.522 132.283,268.742 129.490 C 272.382 127.081,268.785 126.401,259.333 127.710 M159.333 132.672 C 158.692 133.026,157.167 133.622,155.946 133.996 C 153.578 134.723,151.667 136.170,151.667 137.237 C 151.667 139.967,155.883 139.579,157.782 136.674 C 158.745 135.202,160.663 131.995,160.570 132.014 C 160.531 132.022,159.975 132.318,159.333 132.672 M241.108 134.862 C 243.010 138.000,244.311 139.067,246.240 139.067 C 249.886 139.067,248.535 135.320,244.466 134.148 C 243.385 133.836,241.799 133.229,240.942 132.798 L 239.383 132.014 241.108 134.862 M150.656 133.966 C 143.815 136.510,140.548 139.084,139.158 143.026 C 138.516 144.843,138.531 146.817,139.190 147.476 C 140.240 148.525,140.614 148.179,144.115 142.921 C 146.975 138.627,149.364 136.009,151.955 134.330 C 154.523 132.666,154.312 132.607,150.656 133.966 M246.333 133.111 C 246.333 133.171,247.104 133.720,248.045 134.330 C 250.695 136.047,253.011 138.620,256.115 143.294 C 258.529 146.929,259.452 148.000,260.170 148.000 C 260.688 148.000,261.333 146.725,261.333 145.702 C 261.333 140.857,256.747 136.477,248.858 133.787 C 246.434 132.960,246.333 132.933,246.333 133.111 M40.389 156.284 C 40.450 156.440,46.350 164.470,53.500 174.127 C 60.650 183.785,66.500 191.830,66.500 192.007 C 66.500 192.183,60.650 200.225,53.500 209.878 C 46.350 219.530,40.450 227.557,40.389 227.714 C 40.327 227.873,111.229 228.000,199.972 228.000 C 287.804 228.000,359.667 227.922,359.667 227.826 C 359.667 227.730,355.140 221.542,349.607 214.076 C 344.075 206.609,338.136 198.589,336.411 196.252 L 333.274 192.004 335.914 188.419 C 337.367 186.447,343.305 178.417,349.111 170.574 C 354.916 162.732,359.667 156.245,359.667 156.158 C 359.667 156.071,287.804 156.000,199.972 156.000 C 112.128 156.000,40.328 156.128,40.389 156.284 M162.667 187.167 L 162.667 199.000 163.833 199.000 C 164.778 199.000,165.000 199.127,165.000 199.667 C 165.000 200.287,164.778 200.333,161.833 200.333 C 159.241 200.333,158.667 200.243,158.667 199.833 C 158.667 199.210,158.731 199.203,157.167 200.000 C 153.230 202.007,148.464 199.850,147.295 195.533 C 145.510 188.936,151.290 183.023,157.136 185.466 C 157.839 185.760,158.471 186.000,158.541 186.000 C 158.610 186.000,158.667 183.900,158.667 181.333 L 158.667 176.667 157.167 176.667 C 155.889 176.667,155.667 176.568,155.667 176.000 C 155.667 175.376,155.889 175.333,159.167 175.333 L 162.667 175.333 162.667 187.167 M238.261 178.286 C 239.721 179.041,240.333 179.000,240.333 178.147 C 240.333 177.883,240.633 177.667,241.000 177.667 C 241.620 177.667,241.667 177.889,241.667 180.833 C 241.667 184.667,241.030 185.164,239.734 182.339 C 237.886 178.310,231.430 177.399,228.834 180.803 C 225.818 184.757,226.095 193.954,229.333 197.367 C 231.840 200.011,237.326 199.759,239.975 196.879 C 240.925 195.846,241.667 195.740,241.667 196.637 C 241.667 198.633,237.636 200.501,233.333 200.497 C 224.970 200.491,220.077 193.450,222.620 185.079 C 224.542 178.750,232.489 175.299,238.261 178.286 M89.869 185.848 L 93.137 194.028 96.326 185.931 L 99.516 177.833 103.451 177.739 C 107.074 177.653,107.377 177.692,107.274 178.239 C 107.191 178.677,106.789 178.860,105.747 178.936 L 104.333 179.038 104.333 189.019 L 104.333 199.000 105.833 199.000 C 107.111 199.000,107.333 199.099,107.333 199.667 C 107.333 200.303,107.111 200.333,102.500 200.333 C 97.889 200.333,97.667 200.303,97.667 199.667 C 97.667 199.111,97.889 199.000,99.000 199.000 L 100.333 199.000 100.333 189.611 C 100.333 184.447,100.272 180.285,100.198 180.361 C 100.123 180.437,98.308 184.887,96.164 190.250 C 91.962 200.760,91.809 200.981,90.679 198.197 C 90.277 197.206,88.389 192.744,86.485 188.281 L 83.022 180.167 83.011 189.583 L 83.000 199.000 84.333 199.000 C 85.444 199.000,85.667 199.111,85.667 199.667 C 85.667 200.291,85.444 200.333,82.142 200.333 C 78.966 200.333,78.629 200.276,78.728 199.750 C 78.809 199.324,79.222 199.139,80.253 199.064 L 81.667 198.962 81.667 188.981 L 81.667 179.000 80.167 179.000 C 78.889 179.000,78.667 178.901,78.667 178.333 C 78.667 177.704,78.889 177.667,82.635 177.667 L 86.602 177.667 89.869 185.848 M250.990 179.417 C 251.448 180.240,251.448 180.427,250.990 181.250 C 249.910 183.189,246.646 182.171,247.156 180.054 C 247.620 178.128,250.047 177.724,250.990 179.417 M271.126 183.099 C 271.960 184.219,271.523 185.342,269.804 186.501 L 268.792 187.183 269.394 188.175 C 272.089 192.612,266.487 197.863,261.073 195.976 C 259.745 195.513,258.667 196.043,258.667 197.159 C 258.667 198.355,259.109 198.484,263.833 198.672 C 270.216 198.927,271.939 200.051,271.585 203.733 C 271.263 207.082,268.808 208.500,263.333 208.500 C 256.793 208.500,253.868 205.520,257.414 202.469 L 258.500 201.535 257.417 200.467 C 255.899 198.972,256.169 196.853,258.044 195.540 L 258.759 195.039 257.893 194.010 C 253.984 189.365,260.228 182.997,266.231 185.505 C 267.734 186.133,268.941 185.893,268.168 185.120 C 267.455 184.407,267.547 183.470,268.410 182.667 C 269.361 181.781,270.252 181.923,271.126 183.099 M122.479 186.128 C 123.941 187.243,124.982 189.296,124.993 191.083 L 125.000 192.333 119.787 192.333 L 114.574 192.333 114.753 194.308 C 115.179 199.000,118.878 200.792,122.687 198.153 C 124.161 197.131,125.251 197.392,124.303 198.539 C 120.100 203.618,110.325 199.598,110.335 192.795 C 110.344 186.668,117.812 182.568,122.479 186.128 M138.910 185.655 C 141.336 186.756,141.663 187.686,141.671 193.500 C 141.677 198.758,141.888 199.785,142.804 199.025 C 143.870 198.140,144.612 198.952,143.565 199.858 C 142.301 200.950,140.099 200.977,138.952 199.914 L 138.139 199.161 136.820 199.908 C 132.345 202.443,126.795 198.740,128.724 194.507 C 129.631 192.517,133.466 191.458,136.250 192.428 L 137.667 192.922 137.667 190.294 C 137.667 187.081,137.145 186.330,134.917 186.338 C 133.160 186.345,132.319 186.786,132.919 187.386 C 134.613 189.079,131.725 191.727,129.943 190.115 C 126.724 187.202,134.164 183.500,138.910 185.655 M178.167 185.632 C 182.988 187.864,184.017 195.397,179.967 198.812 C 174.434 203.477,166.441 199.230,167.093 191.971 C 167.575 186.601,173.247 183.354,178.167 185.632 M284.576 185.655 C 287.003 186.756,287.330 187.686,287.337 193.500 C 287.344 198.758,287.554 199.785,288.470 199.025 C 289.537 198.140,290.279 198.952,289.231 199.858 C 287.968 200.950,285.766 200.977,284.618 199.914 L 283.806 199.161 282.486 199.908 C 278.012 202.443,272.462 198.740,274.391 194.507 C 275.297 192.517,279.133 191.458,281.917 192.428 L 283.333 192.922 283.333 190.294 C 283.333 187.081,282.811 186.330,280.583 186.338 C 278.826 186.345,277.986 186.786,278.586 187.386 C 280.279 189.079,277.391 191.727,275.610 190.115 C 272.390 187.202,279.831 183.500,284.576 185.655 M305.000 185.667 C 306.313 186.979,305.494 189.333,303.725 189.333 C 302.713 189.333,301.667 188.460,301.667 187.615 C 301.667 186.775,301.052 186.843,299.577 187.845 L 298.333 188.691 298.333 193.845 L 298.333 199.000 300.000 199.000 C 301.444 199.000,301.667 199.089,301.667 199.667 C 301.667 200.302,301.444 200.333,297.000 200.333 C 292.556 200.333,292.333 200.302,292.333 199.667 C 292.333 199.148,292.556 199.000,293.333 199.000 L 294.333 199.000 294.333 192.833 L 294.333 186.667 293.369 186.667 C 292.470 186.667,291.794 185.984,292.245 185.533 C 292.355 185.423,293.769 185.333,295.389 185.333 L 298.333 185.333 298.333 186.207 C 298.333 187.054,298.357 187.064,299.083 186.532 C 301.316 184.896,303.857 184.524,305.000 185.667 M317.192 185.489 C 318.221 185.919,318.385 185.919,318.550 185.489 C 319.099 184.059,320.000 184.998,320.000 187.000 C 320.000 189.209,319.056 189.886,318.298 188.222 C 317.180 185.768,312.000 185.719,312.000 188.161 C 312.000 189.095,313.203 190.132,314.937 190.693 C 319.895 192.298,321.913 194.931,320.451 197.886 C 319.203 200.407,315.199 201.423,312.083 200.009 C 310.918 199.480,310.667 199.452,310.667 199.850 C 310.667 200.143,310.339 200.333,309.833 200.333 C 309.030 200.333,309.000 200.256,309.000 198.167 C 309.000 195.654,309.855 195.108,310.832 196.997 C 312.106 199.461,317.523 200.194,318.102 197.981 C 318.373 196.942,317.433 196.103,314.754 194.997 C 310.531 193.253,309.000 191.713,309.000 189.209 C 309.000 186.065,313.586 183.983,317.192 185.489 M191.333 185.978 C 191.333 186.411,191.065 186.657,190.516 186.728 L 189.699 186.833 191.629 191.255 L 193.560 195.677 195.555 190.588 C 198.202 183.838,198.187 183.840,200.968 190.167 C 202.142 192.838,203.198 195.083,203.315 195.155 C 203.432 195.228,204.180 193.535,204.978 191.393 C 205.775 189.252,206.498 187.313,206.583 187.083 C 206.686 186.806,206.391 186.667,205.702 186.667 C 204.889 186.667,204.667 186.524,204.667 186.000 C 204.667 185.389,204.889 185.333,207.333 185.333 C 209.778 185.333,210.000 185.389,210.000 186.000 C 210.000 186.504,209.777 186.667,209.083 186.670 C 208.212 186.673,208.086 186.892,206.537 191.087 C 202.105 203.094,202.493 202.827,199.361 195.997 C 198.184 193.432,197.120 191.333,196.996 191.333 C 196.873 191.333,195.935 193.396,194.914 195.917 C 192.301 202.363,192.406 202.400,188.461 193.667 C 186.589 189.521,185.170 186.791,184.854 186.726 C 184.568 186.666,184.333 186.329,184.333 185.976 C 184.333 185.382,184.600 185.333,187.833 185.333 C 191.071 185.333,191.333 185.382,191.333 185.978 M251.333 192.167 L 251.333 199.000 252.500 199.000 C 253.444 199.000,253.667 199.127,253.667 199.667 C 253.667 200.301,253.444 200.333,249.142 200.333 C 245.013 200.333,244.627 200.282,244.728 199.750 C 244.805 199.348,245.211 199.135,246.037 199.066 L 247.235 198.966 247.235 192.816 L 247.235 186.667 246.117 186.667 C 245.222 186.667,245.000 186.534,245.000 186.000 C 245.000 185.380,245.222 185.333,248.167 185.333 L 251.333 185.333 251.333 192.167 M116.552 186.703 C 115.886 187.099,114.686 189.472,114.674 190.417 C 114.668 190.932,115.039 191.000,117.877 191.000 L 121.088 191.000 120.902 189.612 C 120.550 186.994,118.437 185.580,116.552 186.703 M152.846 187.124 C 151.829 188.141,151.337 189.948,151.337 192.667 C 151.337 198.138,153.942 200.544,157.367 198.237 L 158.500 197.475 158.592 192.582 L 158.684 187.689 157.355 187.011 C 155.537 186.084,153.844 186.126,152.846 187.124 M173.039 186.877 C 170.725 188.498,170.619 196.865,172.890 198.652 C 176.064 201.149,178.727 197.523,178.211 191.407 C 177.838 186.979,175.640 185.055,173.039 186.877 M261.514 187.122 C 259.794 188.842,260.170 193.680,262.095 194.603 C 264.905 195.950,266.978 193.040,266.192 188.851 C 265.740 186.441,263.152 185.484,261.514 187.122 M133.772 193.669 C 131.125 194.735,132.333 199.743,135.105 199.200 C 138.005 198.632,139.157 195.362,136.935 194.007 C 135.756 193.289,134.934 193.201,133.772 193.669 M279.438 193.669 C 276.792 194.735,278.000 199.743,280.772 199.200 C 283.672 198.632,284.824 195.362,282.601 194.007 C 281.422 193.289,280.601 193.201,279.438 193.669 M259.974 202.641 C 257.402 205.213,260.095 207.726,264.892 207.231 C 267.934 206.917,269.497 205.294,268.587 203.396 C 267.603 201.344,261.782 200.834,259.974 202.641 M148.250 242.554 C 148.542 242.672,148.667 243.656,148.667 245.833 C 148.667 248.010,148.542 248.995,148.250 249.113 C 148.021 249.205,148.433 249.281,149.167 249.281 C 149.900 249.281,150.313 249.205,150.083 249.113 C 149.487 248.872,149.549 246.180,150.162 245.670 C 150.435 245.444,150.885 245.346,151.162 245.452 C 151.803 245.698,151.878 248.859,151.250 249.113 C 151.021 249.205,151.433 249.281,152.167 249.281 C 152.900 249.281,153.313 249.205,153.083 249.113 C 152.831 249.011,152.667 248.313,152.667 247.346 C 152.667 245.446,152.112 244.828,150.666 245.117 C 149.675 245.315,149.667 245.304,149.667 243.825 C 149.667 242.414,149.617 242.335,148.750 242.360 C 148.246 242.374,148.021 242.462,148.250 242.554 M180.583 242.554 C 180.875 242.672,181.000 243.656,181.000 245.833 C 181.000 248.010,180.875 248.995,180.583 249.113 C 180.354 249.205,180.767 249.281,181.500 249.281 C 182.233 249.281,182.646 249.205,182.417 249.113 C 182.123 248.994,182.000 247.971,182.000 245.639 L 182.000 242.333 181.083 242.360 C 180.579 242.374,180.354 242.462,180.583 242.554 M186.417 242.563 C 186.848 242.676,187.000 243.058,187.000 244.031 C 187.000 245.268,186.951 245.334,186.164 245.136 C 184.856 244.808,183.667 245.767,183.667 247.151 C 183.667 248.833,184.303 249.268,186.740 249.256 C 187.892 249.250,188.646 249.178,188.417 249.095 C 188.121 248.988,188.000 247.981,188.000 245.639 L 188.000 242.333 186.917 242.372 C 186.321 242.393,186.096 242.479,186.417 242.563 M198.400 242.733 C 198.180 242.953,198.000 243.541,198.000 244.039 C 198.000 244.537,197.813 245.020,197.583 245.113 C 197.250 245.247,197.250 245.286,197.583 245.307 C 197.862 245.325,198.000 245.931,198.000 247.139 C 198.000 248.271,197.845 249.007,197.583 249.113 C 197.354 249.205,197.842 249.275,198.667 249.268 C 199.492 249.262,199.904 249.187,199.583 249.104 C 199.119 248.982,199.000 248.586,199.000 247.167 C 199.000 245.747,199.119 245.351,199.583 245.230 C 200.121 245.089,200.120 245.074,199.562 245.039 C 198.851 244.993,198.869 242.982,199.584 242.748 C 199.848 242.661,199.926 242.804,199.798 243.139 C 199.665 243.485,199.779 243.667,200.131 243.667 C 200.822 243.667,200.828 242.800,200.139 242.536 C 199.348 242.232,198.844 242.289,198.400 242.733 M248.917 242.554 C 249.208 242.672,249.333 243.656,249.333 245.833 C 249.333 248.010,249.208 248.995,248.917 249.113 C 248.688 249.205,249.100 249.281,249.833 249.281 C 250.567 249.281,250.979 249.205,250.750 249.113 C 250.153 248.872,250.215 246.180,250.829 245.670 C 251.102 245.444,251.552 245.346,251.829 245.452 C 252.469 245.698,252.545 248.859,251.917 249.113 C 251.688 249.205,252.100 249.281,252.833 249.281 C 253.567 249.281,253.979 249.205,253.750 249.113 C 253.498 249.011,253.333 248.313,253.333 247.346 C 253.333 245.446,252.778 244.828,251.333 245.117 C 250.342 245.315,250.333 245.304,250.333 243.825 C 250.333 242.414,250.284 242.335,249.417 242.360 C 248.912 242.374,248.688 242.462,248.917 242.554 M102.617 243.295 C 102.931 243.495,103.067 244.359,103.067 246.167 C 103.067 247.975,102.931 248.839,102.617 249.038 C 102.318 249.227,102.558 249.323,103.333 249.323 C 104.073 249.323,104.342 249.223,104.067 249.048 C 103.763 248.856,103.664 248.091,103.734 246.490 L 103.833 244.206 105.603 246.770 C 107.840 250.009,108.000 249.981,108.000 246.358 C 108.000 243.804,108.083 243.361,108.583 243.230 C 108.904 243.146,108.642 243.062,108.000 243.044 C 107.269 243.023,106.995 243.113,107.267 243.285 C 107.566 243.475,107.670 244.198,107.601 245.611 L 107.500 247.661 105.899 245.330 C 104.477 243.261,104.179 243.001,103.232 243.005 C 102.512 243.009,102.313 243.103,102.617 243.295 M120.333 243.500 C 120.333 243.775,120.558 244.000,120.833 244.000 C 121.108 244.000,121.333 243.775,121.333 243.500 C 121.333 243.225,121.108 243.000,120.833 243.000 C 120.558 243.000,120.333 243.225,120.333 243.500 M161.364 243.331 C 161.656 243.501,162.390 244.922,162.995 246.487 C 164.253 249.742,164.405 249.853,164.980 247.936 C 165.978 244.603,165.963 244.612,166.867 246.824 C 168.038 249.688,168.121 249.672,169.302 246.370 C 169.891 244.723,170.552 243.303,170.770 243.214 C 170.988 243.125,170.642 243.051,170.000 243.050 C 169.290 243.048,169.042 243.136,169.366 243.273 C 169.844 243.476,169.822 243.725,169.156 245.667 L 168.412 247.833 168.026 246.833 C 167.813 246.283,167.397 245.189,167.102 244.401 C 166.478 242.738,166.290 242.847,165.497 245.333 C 164.646 247.997,164.614 248.003,163.823 245.650 C 163.174 243.719,163.155 243.477,163.634 243.273 C 163.927 243.149,163.417 243.041,162.500 243.034 C 161.318 243.024,160.988 243.111,161.364 243.331 M205.434 243.335 C 202.894 244.366,203.425 248.674,206.156 249.187 C 207.343 249.409,209.333 248.859,209.333 248.308 C 209.333 248.156,208.912 248.273,208.398 248.568 C 206.399 249.715,204.685 248.067,205.116 245.412 C 205.451 243.348,207.323 242.634,208.654 244.063 L 209.333 244.792 209.332 243.980 C 209.330 243.081,207.006 242.697,205.434 243.335 M210.667 243.500 C 210.667 243.775,210.892 244.000,211.167 244.000 C 211.442 244.000,211.667 243.775,211.667 243.500 C 211.667 243.225,211.442 243.000,211.167 243.000 C 210.892 243.000,210.667 243.225,210.667 243.500 M242.667 243.500 C 242.667 243.775,242.892 244.000,243.167 244.000 C 243.442 244.000,243.667 243.775,243.667 243.500 C 243.667 243.225,243.442 243.000,243.167 243.000 C 242.892 243.000,242.667 243.225,242.667 243.500 M257.583 243.221 C 257.870 243.336,258.000 244.256,258.000 246.167 C 258.000 248.077,257.870 248.997,257.583 249.113 C 257.354 249.205,257.842 249.275,258.667 249.268 C 259.492 249.262,259.904 249.187,259.583 249.104 C 258.540 248.831,258.830 247.333,259.926 247.333 C 261.382 247.333,262.333 246.477,262.333 245.167 C 262.333 243.614,261.368 242.993,259.009 243.026 C 257.996 243.041,257.354 243.128,257.583 243.221 M277.333 243.500 C 277.333 243.775,277.558 244.000,277.833 244.000 C 278.108 244.000,278.333 243.775,278.333 243.500 C 278.333 243.225,278.108 243.000,277.833 243.000 C 277.558 243.000,277.333 243.225,277.333 243.500 M284.667 243.500 C 284.667 243.775,284.892 244.000,285.167 244.000 C 285.442 244.000,285.667 243.775,285.667 243.500 C 285.667 243.225,285.442 243.000,285.167 243.000 C 284.892 243.000,284.667 243.225,284.667 243.500 M261.137 244.403 C 261.588 245.693,260.935 247.000,259.840 247.000 C 259.043 247.000,259.000 246.906,259.000 245.145 C 259.000 242.978,260.461 242.471,261.137 244.403 M132.969 244.417 C 132.896 246.198,133.083 248.200,133.375 248.745 C 133.703 249.358,135.156 249.556,135.481 249.031 C 135.584 248.865,135.367 248.807,135.000 248.903 C 134.392 249.062,134.333 248.914,134.333 247.229 C 134.333 245.576,134.413 245.364,135.083 245.235 L 135.833 245.091 135.083 245.045 C 134.571 245.014,134.333 244.789,134.333 244.333 C 134.333 243.346,133.010 243.427,132.969 244.417 M144.636 244.417 C 144.562 246.198,144.750 248.200,145.042 248.745 C 145.370 249.358,146.823 249.556,147.147 249.031 C 147.250 248.865,147.034 248.807,146.667 248.903 C 146.059 249.062,146.000 248.914,146.000 247.229 C 146.000 245.576,146.080 245.364,146.750 245.235 L 147.500 245.091 146.750 245.045 C 146.237 245.014,146.000 244.789,146.000 244.333 C 146.000 243.346,144.677 243.427,144.636 244.417 M245.302 244.417 C 245.229 246.198,245.417 248.200,245.708 248.745 C 246.037 249.358,247.490 249.556,247.814 249.031 C 247.917 248.865,247.701 248.807,247.334 248.903 C 246.726 249.062,246.667 248.914,246.667 247.229 C 246.667 245.576,246.746 245.364,247.417 245.235 L 248.167 245.091 247.417 245.045 C 246.904 245.014,246.667 244.789,246.667 244.333 C 246.667 243.346,245.343 243.427,245.302 244.417 M126.231 244.546 C 125.965 244.813,126.266 245.333,126.686 245.333 C 126.859 245.333,127.000 245.108,127.000 244.833 C 127.000 244.318,126.607 244.171,126.231 244.546 M216.565 244.546 C 216.298 244.813,216.599 245.333,217.020 245.333 C 217.192 245.333,217.333 245.108,217.333 244.833 C 217.333 244.318,216.940 244.171,216.565 244.546 M110.513 245.449 C 110.175 245.697,110.005 246.072,110.135 246.283 C 110.511 246.890,111.000 246.730,111.000 246.000 C 111.000 245.556,111.222 245.333,111.667 245.333 C 112.100 245.333,112.345 245.567,112.367 246.000 C 112.385 246.367,112.415 247.007,112.433 247.424 C 112.475 248.379,112.100 249.000,111.480 249.000 C 110.774 249.000,110.866 247.417,111.583 247.230 C 112.061 247.105,112.043 247.070,111.480 247.039 C 110.348 246.975,109.429 247.845,109.870 248.564 C 110.149 249.019,110.683 249.174,112.048 249.196 L 113.857 249.226 113.658 247.421 C 113.402 245.094,112.108 244.283,110.513 245.449 M114.570 245.266 C 114.792 245.407,115.352 246.380,115.816 247.428 C 116.870 249.812,117.076 249.804,117.994 247.350 C 118.402 246.259,118.908 245.295,119.118 245.209 C 119.328 245.123,119.154 245.041,118.730 245.026 C 118.307 245.012,118.044 245.134,118.145 245.298 C 118.246 245.462,118.084 246.174,117.785 246.881 L 117.240 248.167 116.669 246.833 C 116.265 245.892,116.205 245.428,116.465 245.255 C 116.668 245.120,116.233 245.010,115.500 245.010 C 114.751 245.010,114.343 245.123,114.570 245.266 M119.917 245.221 C 120.177 245.326,120.333 246.056,120.333 247.167 C 120.333 248.277,120.177 249.008,119.917 249.113 C 119.688 249.205,120.100 249.281,120.833 249.281 C 121.567 249.281,121.979 249.205,121.750 249.113 C 121.483 249.005,121.333 248.238,121.333 246.972 C 121.333 245.037,121.316 245.000,120.417 245.026 C 119.912 245.041,119.688 245.128,119.917 245.221 M123.568 245.417 C 123.129 245.744,123.033 246.262,123.118 247.833 C 123.178 248.933,123.069 250.037,122.876 250.286 C 121.922 251.517,125.480 252.187,126.667 251.000 C 127.918 249.749,127.057 248.667,124.810 248.667 C 123.998 248.667,123.333 248.517,123.333 248.333 C 123.333 248.150,123.793 248.000,124.355 248.000 C 125.811 248.000,126.667 247.445,126.667 246.500 C 126.667 245.192,124.763 244.527,123.568 245.417 M128.513 245.449 C 128.175 245.697,128.005 246.072,128.135 246.283 C 128.511 246.890,129.000 246.730,129.000 246.000 C 129.000 245.556,129.222 245.333,129.667 245.333 C 130.100 245.333,130.345 245.567,130.367 246.000 C 130.385 246.367,130.415 247.007,130.433 247.424 C 130.475 248.379,130.100 249.000,129.480 249.000 C 128.774 249.000,128.866 247.417,129.583 247.230 C 130.061 247.105,130.043 247.070,129.480 247.039 C 128.348 246.975,127.429 247.845,127.870 248.564 C 128.149 249.019,128.683 249.174,130.048 249.196 L 131.857 249.226 131.658 247.421 C 131.402 245.094,130.108 244.283,128.513 245.449 M137.024 245.878 C 135.478 247.844,137.920 250.393,140.000 248.985 C 140.371 248.734,140.262 248.702,139.579 248.860 C 138.517 249.107,137.667 248.558,137.667 247.626 C 137.667 247.106,137.921 247.000,139.167 247.000 C 140.806 247.000,140.924 246.849,140.148 245.741 C 139.412 244.690,137.906 244.757,137.024 245.878 M154.358 245.878 C 152.811 247.844,155.253 250.393,157.333 248.985 C 157.704 248.734,157.595 248.702,156.912 248.860 C 155.850 249.107,155.000 248.558,155.000 247.626 C 155.000 247.106,155.255 247.000,156.500 247.000 C 158.140 247.000,158.257 246.849,157.481 245.741 C 156.745 244.690,155.240 244.757,154.358 245.878 M171.667 245.667 C 169.739 247.595,172.339 250.393,174.592 248.814 C 175.110 248.452,175.333 247.955,175.333 247.167 C 175.333 245.219,173.049 244.285,171.667 245.667 M176.250 245.221 C 176.510 245.326,176.667 246.056,176.667 247.167 C 176.667 248.277,176.510 249.008,176.250 249.113 C 176.021 249.205,176.508 249.275,177.333 249.268 C 178.158 249.262,178.571 249.187,178.250 249.104 C 177.807 248.988,177.667 248.601,177.667 247.495 C 177.667 245.901,178.088 245.382,178.862 246.024 C 179.533 246.581,180.352 245.885,179.742 245.276 C 179.446 244.979,179.148 244.978,178.509 245.269 C 177.999 245.501,177.667 245.524,177.667 245.326 C 177.667 245.147,177.254 245.012,176.750 245.026 C 176.246 245.041,176.021 245.128,176.250 245.221 M192.667 245.667 C 190.739 247.595,193.339 250.393,195.592 248.814 C 196.110 248.452,196.333 247.955,196.333 247.167 C 196.333 245.219,194.049 244.285,192.667 245.667 M210.250 245.221 C 210.510 245.326,210.667 246.056,210.667 247.167 C 210.667 248.277,210.510 249.008,210.250 249.113 C 210.021 249.205,210.433 249.281,211.167 249.281 C 211.900 249.281,212.313 249.205,212.083 249.113 C 211.816 249.005,211.667 248.238,211.667 246.972 C 211.667 245.037,211.650 245.000,210.750 245.026 C 210.246 245.041,210.021 245.128,210.250 245.221 M213.902 245.417 C 213.463 245.744,213.366 246.262,213.452 247.833 C 213.512 248.933,213.403 250.037,213.210 250.286 C 212.255 251.517,215.813 252.187,217.000 251.000 C 218.251 249.749,217.390 248.667,215.143 248.667 C 214.331 248.667,213.667 248.517,213.667 248.333 C 213.667 248.150,214.127 248.000,214.689 248.000 C 216.145 248.000,217.000 247.445,217.000 246.500 C 217.000 245.192,215.096 244.527,213.902 245.417 M218.846 245.449 C 218.508 245.697,218.338 246.072,218.469 246.283 C 218.844 246.890,219.333 246.730,219.333 246.000 C 219.333 245.556,219.556 245.333,220.000 245.333 C 220.433 245.333,220.678 245.567,220.700 246.000 C 220.718 246.367,220.748 247.007,220.767 247.424 C 220.809 248.379,220.433 249.000,219.814 249.000 C 219.107 249.000,219.199 247.417,219.917 247.230 C 220.395 247.105,220.376 247.070,219.814 247.039 C 218.681 246.975,217.762 247.845,218.203 248.564 C 218.482 249.019,219.016 249.174,220.381 249.196 L 222.190 249.226 221.991 247.421 C 221.735 245.094,220.441 244.283,218.846 245.449 M223.250 245.221 C 223.510 245.326,223.667 246.056,223.667 247.167 C 223.667 248.277,223.510 249.008,223.250 249.113 C 223.021 249.205,223.508 249.275,224.333 249.268 C 225.158 249.262,225.571 249.187,225.250 249.104 C 224.807 248.988,224.667 248.601,224.667 247.495 C 224.667 245.901,225.088 245.382,225.862 246.024 C 226.533 246.581,227.352 245.885,226.742 245.276 C 226.446 244.979,226.148 244.978,225.509 245.269 C 224.999 245.501,224.667 245.524,224.667 245.326 C 224.667 245.147,224.254 245.012,223.750 245.026 C 223.246 245.041,223.021 245.128,223.250 245.221 M228.072 245.394 C 227.322 246.144,227.630 246.977,228.880 247.581 C 229.547 247.903,230.080 248.317,230.064 248.500 C 230.013 249.090,228.970 249.076,228.309 248.478 C 227.696 247.923,227.667 247.926,227.667 248.532 C 227.668 249.013,227.936 249.186,228.777 249.245 C 231.124 249.412,231.709 247.595,229.615 246.642 C 229.042 246.380,228.556 246.019,228.536 245.838 C 228.474 245.272,229.560 245.274,230.126 245.840 C 230.625 246.339,230.667 246.333,230.667 245.759 C 230.667 245.013,228.726 244.741,228.072 245.394 M235.455 247.167 C 236.648 249.728,236.709 249.752,237.380 247.917 L 237.898 246.500 238.643 247.956 C 239.481 249.596,239.661 249.521,240.522 247.167 C 240.858 246.250,241.290 245.390,241.483 245.255 C 241.678 245.119,241.506 245.008,241.094 245.005 C 240.591 245.002,240.412 245.152,240.536 245.472 C 240.635 245.732,240.494 246.370,240.222 246.889 L 239.728 247.833 239.161 246.416 C 238.458 244.660,238.223 244.647,237.667 246.333 C 237.425 247.067,237.115 247.667,236.979 247.667 C 236.636 247.667,235.967 245.657,236.190 245.295 C 236.291 245.133,235.939 245.000,235.410 245.000 L 234.446 245.000 235.455 247.167 M242.250 245.221 C 242.510 245.326,242.667 246.056,242.667 247.167 C 242.667 248.277,242.510 249.008,242.250 249.113 C 242.021 249.205,242.433 249.281,243.167 249.281 C 243.900 249.281,244.313 249.205,244.083 249.113 C 243.816 249.005,243.667 248.238,243.667 246.972 C 243.667 245.037,243.650 245.000,242.750 245.026 C 242.246 245.041,242.021 245.128,242.250 245.221 M263.250 245.221 C 263.510 245.326,263.667 246.056,263.667 247.167 C 263.667 248.277,263.510 249.008,263.250 249.113 C 263.021 249.205,263.508 249.275,264.333 249.268 C 265.158 249.262,265.571 249.187,265.250 249.104 C 264.807 248.988,264.667 248.601,264.667 247.495 C 264.667 245.901,265.088 245.382,265.862 246.024 C 266.533 246.581,267.352 245.885,266.742 245.276 C 266.446 244.979,266.148 244.978,265.509 245.269 C 264.999 245.501,264.667 245.524,264.667 245.326 C 264.667 245.147,264.254 245.012,263.750 245.026 C 263.246 245.041,263.021 245.128,263.250 245.221 M268.024 245.878 C 266.478 247.844,268.920 250.393,271.000 248.985 C 271.371 248.734,271.262 248.702,270.579 248.860 C 269.517 249.107,268.667 248.558,268.667 247.626 C 268.667 247.106,268.921 247.000,270.167 247.000 C 271.806 247.000,271.924 246.849,271.148 245.741 C 270.412 244.690,268.906 244.757,268.024 245.878 M273.000 245.667 C 271.625 247.042,272.654 249.333,274.647 249.333 C 275.186 249.333,275.703 249.210,275.796 249.060 C 275.889 248.910,275.525 248.852,274.988 248.931 C 274.167 249.051,273.956 248.927,273.662 248.153 C 273.194 246.925,273.672 245.531,274.608 245.394 C 275.123 245.318,275.277 245.425,275.146 245.767 C 275.045 246.031,275.183 246.332,275.453 246.436 C 276.200 246.722,276.402 245.727,275.676 245.338 C 274.700 244.816,273.732 244.935,273.000 245.667 M276.917 245.221 C 277.177 245.326,277.333 246.056,277.333 247.167 C 277.333 248.277,277.177 249.008,276.917 249.113 C 276.688 249.205,277.100 249.281,277.833 249.281 C 278.567 249.281,278.979 249.205,278.750 249.113 C 278.483 249.005,278.333 248.238,278.333 246.972 C 278.333 245.037,278.316 245.000,277.417 245.026 C 276.912 245.041,276.688 245.128,276.917 245.221 M280.406 245.394 C 279.656 246.144,279.963 246.977,281.213 247.581 C 281.880 247.903,282.413 248.317,282.397 248.500 C 282.347 249.090,281.303 249.076,280.642 248.478 C 280.030 247.923,280.000 247.926,280.001 248.532 C 280.001 249.013,280.270 249.186,281.110 249.245 C 283.457 249.412,284.043 247.595,281.949 246.642 C 281.375 246.380,280.889 246.019,280.869 245.838 C 280.807 245.272,281.893 245.274,282.460 245.840 C 282.958 246.339,283.000 246.333,283.000 245.759 C 283.000 245.013,281.059 244.741,280.406 245.394 M284.250 245.221 C 284.510 245.326,284.667 246.056,284.667 247.167 C 284.667 248.277,284.510 249.008,284.250 249.113 C 284.021 249.205,284.433 249.281,285.167 249.281 C 285.900 249.281,286.313 249.205,286.083 249.113 C 285.816 249.005,285.667 248.238,285.667 246.972 C 285.667 245.037,285.650 245.000,284.750 245.026 C 284.246 245.041,284.021 245.128,284.250 245.221 M287.667 245.667 C 285.739 247.595,288.339 250.393,290.592 248.814 C 291.110 248.452,291.333 247.955,291.333 247.167 C 291.333 245.219,289.049 244.285,287.667 245.667 M292.250 245.235 C 292.512 245.332,292.667 246.049,292.667 247.167 C 292.667 248.277,292.510 249.008,292.250 249.113 C 292.021 249.205,292.433 249.281,293.167 249.281 C 293.900 249.281,294.313 249.205,294.083 249.113 C 293.487 248.872,293.549 246.180,294.162 245.670 C 294.435 245.444,294.885 245.346,295.162 245.452 C 295.803 245.698,295.878 248.859,295.250 249.113 C 295.021 249.205,295.433 249.281,296.167 249.281 C 296.900 249.281,297.313 249.205,297.083 249.113 C 296.831 249.011,296.667 248.313,296.667 247.346 C 296.667 245.350,296.325 245.077,293.833 245.079 C 292.733 245.080,292.021 245.150,292.250 245.235 M125.500 246.505 C 125.500 247.275,125.351 247.500,124.838 247.500 C 124.145 247.500,123.802 246.663,124.137 245.789 C 124.486 244.882,125.500 245.414,125.500 246.505 M139.271 246.087 C 139.353 246.516,139.160 246.667,138.524 246.667 C 137.589 246.667,137.569 246.642,137.875 245.844 C 138.141 245.152,139.124 245.323,139.271 246.087 M156.604 246.087 C 156.687 246.516,156.493 246.667,155.858 246.667 C 154.922 246.667,154.902 246.642,155.209 245.844 C 155.474 245.152,156.457 245.323,156.604 246.087 M174.067 246.180 C 174.573 247.291,174.061 248.833,173.186 248.833 C 172.354 248.833,171.870 247.384,172.314 246.217 C 172.739 245.099,173.566 245.081,174.067 246.180 M186.473 245.536 C 187.325 245.863,187.199 248.559,186.317 248.838 C 185.365 249.141,184.667 248.445,184.667 247.193 C 184.667 245.693,185.320 245.093,186.473 245.536 M195.067 246.180 C 195.573 247.291,195.061 248.833,194.186 248.833 C 193.354 248.833,192.870 247.384,193.314 246.217 C 193.739 245.099,194.566 245.081,195.067 246.180 M215.833 246.505 C 215.833 247.275,215.684 247.500,215.171 247.500 C 214.478 247.500,214.135 246.663,214.471 245.789 C 214.819 244.882,215.833 245.414,215.833 246.505 M270.271 246.087 C 270.353 246.516,270.160 246.667,269.524 246.667 C 268.589 246.667,268.569 246.642,268.875 245.844 C 269.141 245.152,270.124 245.323,270.271 246.087 M290.067 246.180 C 290.573 247.291,290.061 248.833,289.186 248.833 C 288.354 248.833,287.870 247.384,288.314 246.217 C 288.739 245.099,289.566 245.081,290.067 246.180 M126.167 250.500 C 126.167 250.987,125.908 251.196,125.209 251.276 C 124.090 251.404,123.491 250.937,123.787 250.168 C 124.109 249.329,126.167 249.617,126.167 250.500 M216.500 250.500 C 216.500 250.987,216.241 251.196,215.543 251.276 C 214.424 251.404,213.825 250.937,214.120 250.168 C 214.442 249.329,216.500 249.617,216.500 250.500 M174.928 268.167 C 174.876 268.210,173.708 268.337,172.333 268.448 C 168.673 268.743,166.000 269.628,166.000 270.545 C 166.000 271.687,167.323 271.833,178.167 271.883 C 189.966 271.938,191.911 272.180,195.289 274.009 L 197.114 274.998 196.307 274.135 C 194.273 271.959,186.129 269.000,180.810 268.503 C 177.835 268.225,175.049 268.066,174.928 268.167 M222.596 268.166 C 222.543 268.210,221.300 268.333,219.833 268.440 C 214.004 268.865,205.796 271.853,203.500 274.386 C 202.950 274.993,202.800 275.247,203.167 274.950 C 206.301 272.415,209.177 271.942,221.833 271.883 C 232.742 271.832,234.000 271.690,234.000 270.512 C 234.000 269.887,230.884 268.758,228.462 268.506 C 226.019 268.251,222.723 268.060,222.596 268.166 M180.533 275.159 C 176.816 276.484,178.522 278.464,183.245 278.305 C 184.852 278.251,187.683 278.198,189.535 278.187 L 192.904 278.167 191.869 277.537 C 187.816 275.070,183.389 274.142,180.533 275.159 M213.957 275.020 C 212.559 275.351,209.634 276.612,208.131 277.533 L 207.096 278.167 210.465 278.187 C 212.317 278.198,215.148 278.251,216.755 278.305 C 219.017 278.381,219.864 278.281,220.505 277.861 C 223.305 276.026,218.504 273.944,213.957 275.020 M168.953 275.379 C 165.397 275.890,162.742 278.361,164.190 279.810 C 165.295 280.914,167.038 280.343,170.500 277.744 C 171.600 276.918,172.987 276.035,173.583 275.783 C 174.179 275.531,174.667 275.286,174.667 275.239 C 174.667 275.062,170.436 275.165,168.953 275.379 M225.667 275.346 C 225.667 275.482,226.004 275.683,226.417 275.792 C 226.829 275.901,228.067 276.677,229.167 277.517 C 233.070 280.497,236.333 281.230,236.333 279.126 C 236.333 278.211,235.037 276.827,233.533 276.139 C 231.793 275.342,225.667 274.725,225.667 275.346 M189.667 281.216 C 187.862 281.944,187.152 283.765,188.276 284.782 C 189.266 285.677,190.259 285.430,191.931 283.871 C 192.794 283.067,193.800 282.348,194.167 282.273 C 194.805 282.143,194.801 282.119,194.074 281.719 C 193.200 281.237,190.406 280.918,189.667 281.216 M206.941 281.220 C 205.841 281.409,204.928 282.333,205.841 282.333 C 206.166 282.333,207.152 283.008,208.034 283.833 C 209.776 285.462,210.877 285.724,211.782 284.724 C 213.608 282.706,210.671 280.580,206.941 281.220 " stroke="none" fill="#f3dba3" fill-rule="evenodd"></path><path id="path2" d="M76.813 76.433 C 76.722 76.671,76.694 78.958,76.750 81.516 L 76.854 86.167 76.927 81.278 C 76.980 77.736,77.115 76.343,77.417 76.221 C 77.743 76.089,77.741 76.047,77.406 76.026 C 77.171 76.012,76.904 76.195,76.813 76.433 M78.145 86.167 C 78.145 90.933,78.192 92.837,78.249 90.397 C 78.306 87.957,78.306 84.057,78.249 81.730 C 78.192 79.404,78.145 81.400,78.145 86.167 M213.450 112.000 C 213.450 113.558,213.507 114.196,213.577 113.417 C 213.648 112.638,213.648 111.362,213.577 110.583 C 213.507 109.804,213.450 110.442,213.450 112.000 M197.435 110.981 C 197.342 111.338,196.943 111.692,196.549 111.769 C 195.858 111.904,195.859 111.911,196.594 111.955 C 197.044 111.981,197.442 111.762,197.569 111.417 C 197.688 111.096,197.946 110.723,198.142 110.588 C 198.377 110.428,198.346 110.342,198.052 110.338 C 197.806 110.336,197.528 110.625,197.435 110.981 M205.803 110.792 C 205.706 111.045,205.684 111.982,205.753 112.876 L 205.880 114.500 205.940 112.596 L 206.000 110.693 208.917 110.582 L 211.833 110.470 208.906 110.402 C 206.680 110.350,205.937 110.443,205.803 110.792 M199.083 112.896 C 199.404 112.980,199.929 112.980,200.250 112.896 C 200.571 112.813,200.308 112.744,199.667 112.744 C 199.025 112.744,198.762 112.813,199.083 112.896 M201.782 113.181 C 201.673 113.464,201.678 113.789,201.792 113.903 C 201.906 114.018,202.000 113.872,202.000 113.580 C 202.000 113.288,202.262 112.980,202.583 112.896 C 203.130 112.754,203.129 112.742,202.573 112.705 C 202.246 112.684,201.890 112.898,201.782 113.181 M194.795 113.481 C 194.693 113.745,194.669 114.232,194.741 114.564 C 194.822 114.940,194.936 114.760,195.045 114.083 C 195.226 112.948,195.108 112.664,194.795 113.481 M197.372 113.722 C 197.351 114.211,197.146 114.687,196.917 114.779 C 196.590 114.911,196.593 114.953,196.927 114.974 C 197.456 115.006,197.775 114.239,197.567 113.436 C 197.462 113.030,197.398 113.123,197.372 113.722 M189.757 115.333 C 189.757 116.158,189.822 116.496,189.902 116.083 C 189.981 115.671,189.981 114.996,189.902 114.583 C 189.822 114.171,189.757 114.508,189.757 115.333 M186.437 116.500 C 186.438 117.600,186.501 118.010,186.575 117.411 C 186.649 116.812,186.648 115.912,186.572 115.411 C 186.495 114.910,186.435 115.400,186.437 116.500 M213.410 125.902 L 213.333 133.304 210.917 133.419 L 208.500 133.534 210.927 133.600 C 213.929 133.682,213.701 134.362,213.583 125.658 L 213.486 118.500 213.410 125.902 M186.387 122.897 C 186.357 124.582,186.446 126.031,186.583 126.116 C 186.721 126.202,186.792 125.273,186.741 124.053 C 186.581 120.186,186.442 119.732,186.387 122.897 M70.820 135.167 C 70.820 143.417,70.863 146.744,70.916 142.561 C 70.969 138.377,70.969 131.627,70.916 127.561 C 70.863 123.494,70.820 126.917,70.820 135.167 M186.477 130.916 L 186.500 133.500 188.833 133.527 L 191.167 133.553 188.930 133.428 L 186.694 133.304 186.575 130.817 L 186.455 128.331 186.477 130.916 M194.595 133.579 C 195.563 133.647,197.063 133.646,197.928 133.578 C 198.793 133.509,198.000 133.454,196.167 133.455 C 194.333 133.456,193.626 133.512,194.595 133.579 M202.417 133.578 C 203.287 133.647,204.713 133.647,205.583 133.578 C 206.454 133.510,205.742 133.453,204.000 133.453 C 202.258 133.453,201.546 133.510,202.417 133.578 M157.583 175.579 C 158.546 175.646,160.121 175.646,161.083 175.579 C 162.046 175.512,161.258 175.457,159.333 175.457 C 157.408 175.457,156.621 175.512,157.583 175.579 M79.583 178.902 C 79.996 178.981,80.671 178.981,81.083 178.902 C 81.496 178.822,81.158 178.757,80.333 178.757 C 79.508 178.757,79.171 178.822,79.583 178.902 M104.151 179.087 C 104.062 179.318,104.030 183.931,104.078 189.337 L 104.167 199.167 105.752 199.197 L 107.338 199.228 105.835 199.096 L 104.333 198.963 104.333 189.001 L 104.333 179.038 105.750 178.911 L 107.167 178.783 105.740 178.725 C 104.852 178.689,104.251 178.826,104.151 179.087 M191.000 185.778 C 191.000 186.105,190.735 186.333,190.353 186.333 C 189.997 186.333,189.627 186.462,189.530 186.619 C 189.433 186.775,189.736 186.831,190.204 186.741 C 191.043 186.581,191.613 185.835,191.208 185.430 C 191.094 185.316,191.000 185.472,191.000 185.778 M245.105 185.833 C 245.157 186.350,245.434 186.510,246.336 186.544 C 247.463 186.586,247.466 186.582,246.437 186.441 C 245.818 186.355,245.304 186.059,245.206 185.730 C 245.085 185.323,245.057 185.351,245.105 185.833 M205.000 186.462 C 205.000 186.533,205.450 186.657,206.000 186.738 C 206.550 186.818,207.000 186.761,207.000 186.609 C 207.000 186.457,206.550 186.333,206.000 186.333 C 205.450 186.333,205.000 186.391,205.000 186.462 M293.333 186.521 L 294.333 186.709 294.333 192.833 L 294.333 198.958 293.250 199.106 L 292.167 199.254 293.333 199.210 L 294.500 199.167 294.500 192.833 L 294.500 186.500 293.417 186.417 C 292.349 186.335,292.347 186.336,293.333 186.521 M222.100 189.000 C 222.100 190.008,222.162 190.421,222.239 189.917 C 222.315 189.412,222.315 188.588,222.239 188.083 C 222.162 187.579,222.100 187.992,222.100 189.000 M309.077 189.333 C 309.077 189.975,309.146 190.237,309.230 189.917 C 309.314 189.596,309.314 189.071,309.230 188.750 C 309.146 188.429,309.077 188.692,309.077 189.333 M121.000 190.467 C 121.000 190.983,120.649 191.033,117.697 190.939 C 115.881 190.881,114.465 190.946,114.550 191.083 C 114.879 191.612,121.007 191.369,121.218 190.819 C 121.327 190.536,121.322 190.211,121.208 190.097 C 121.094 189.982,121.000 190.149,121.000 190.467 M110.417 192.833 C 110.421 193.567,110.489 193.827,110.569 193.413 C 110.649 192.998,110.646 192.398,110.562 192.079 C 110.479 191.761,110.414 192.100,110.417 192.833 M147.091 193.000 C 147.091 193.825,147.156 194.162,147.235 193.750 C 147.315 193.338,147.315 192.662,147.235 192.250 C 147.156 191.838,147.091 192.175,147.091 193.000 M262.750 196.230 C 263.071 196.314,263.596 196.314,263.917 196.230 C 264.237 196.146,263.975 196.077,263.333 196.077 C 262.692 196.077,262.429 196.146,262.750 196.230 M82.873 199.064 C 82.964 199.212,83.544 199.333,84.162 199.333 C 84.943 199.333,85.337 199.511,85.456 199.917 C 85.590 200.370,85.613 200.352,85.560 199.833 C 85.507 199.319,85.173 199.124,84.099 198.980 C 83.333 198.878,82.781 198.915,82.873 199.064 M79.583 199.235 C 79.996 199.315,80.671 199.315,81.083 199.235 C 81.496 199.156,81.158 199.091,80.333 199.091 C 79.508 199.091,79.171 199.156,79.583 199.235 M98.250 199.235 C 98.662 199.315,99.337 199.315,99.750 199.235 C 100.162 199.156,99.825 199.091,99.000 199.091 C 98.175 199.091,97.837 199.156,98.250 199.235 M163.646 199.186 C 164.185 199.289,164.694 199.592,164.779 199.859 C 164.876 200.169,164.913 200.132,164.880 199.757 C 164.844 199.344,164.503 199.142,163.747 199.083 C 162.716 199.004,162.712 199.009,163.646 199.186 M245.587 199.236 C 246.002 199.315,246.602 199.312,246.921 199.229 C 247.239 199.146,246.900 199.080,246.167 199.084 C 245.433 199.088,245.173 199.156,245.587 199.236 M252.313 199.186 C 252.851 199.289,253.361 199.592,253.445 199.859 C 253.543 200.169,253.580 200.132,253.547 199.757 C 253.510 199.344,253.170 199.142,252.414 199.083 C 251.383 199.004,251.378 199.009,252.313 199.186 M298.667 199.186 C 299.905 199.456,301.605 199.503,301.457 199.264 C 301.367 199.119,300.590 199.017,299.730 199.039 C 298.870 199.060,298.392 199.126,298.667 199.186 M263.083 207.563 C 263.404 207.647,263.929 207.647,264.250 207.563 C 264.571 207.479,264.308 207.411,263.667 207.411 C 263.025 207.411,262.762 207.479,263.083 207.563 M70.483 239.333 C 70.483 245.658,70.528 248.246,70.583 245.083 C 70.638 241.921,70.638 236.746,70.583 233.583 C 70.528 230.421,70.483 233.008,70.483 239.333 " stroke="none" fill="#8c7c6c" fill-rule="evenodd"></path><path id="path3" d="M0.000 200.000 L 0.000 400.000 200.000 400.000 L 400.000 400.000 400.000 200.000 L 400.000 0.000 200.000 0.000 L 0.000 0.000 0.000 200.000 M330.359 71.083 C 330.372 71.496,330.393 90.769,330.404 113.913 L 330.423 155.993 345.205 156.080 L 359.987 156.167 346.987 173.667 C 333.072 192.398,333.498 191.792,333.791 192.417 C 333.898 192.646,339.838 200.708,346.990 210.333 L 359.995 227.833 345.204 227.920 L 330.413 228.007 330.400 242.253 C 330.393 250.089,330.375 256.971,330.360 257.548 C 330.334 258.562,330.090 258.730,322.583 262.906 C 318.321 265.277,293.908 278.849,268.333 293.066 C 242.758 307.283,217.224 321.484,211.591 324.624 C 201.428 330.289,200.760 330.606,200.150 330.040 C 199.976 329.878,197.508 328.474,194.667 326.919 C 191.825 325.364,187.250 322.850,184.500 321.331 C 181.750 319.813,174.925 316.064,169.333 313.001 C 163.742 309.938,153.954 304.559,147.583 301.049 C 141.212 297.539,130.787 291.796,124.417 288.287 C 118.046 284.778,110.658 280.707,108.000 279.241 C 105.342 277.774,100.842 275.299,98.000 273.740 C 95.158 272.181,89.533 269.076,85.500 266.840 C 81.467 264.604,76.404 261.816,74.250 260.644 L 70.333 258.513 70.333 243.260 L 70.333 228.007 55.169 227.920 L 40.004 227.833 53.169 210.065 C 60.409 200.292,66.333 192.161,66.333 191.995 C 66.333 191.830,60.410 183.700,53.171 173.930 L 40.009 156.167 55.338 156.080 L 70.667 155.993 70.692 138.247 C 70.706 128.486,70.769 114.800,70.832 107.833 C 70.896 100.867,70.959 89.579,70.974 82.750 L 71.000 70.333 200.667 70.333 L 330.333 70.333 330.359 71.083 M76.981 76.417 C 76.583 78.176,76.683 156.000,77.083 156.000 C 77.894 156.000,77.882 156.558,77.969 116.337 C 78.015 95.164,78.177 77.764,78.328 77.670 C 78.479 77.577,133.630 77.508,200.885 77.517 L 323.167 77.533 323.251 116.791 C 323.332 153.938,323.367 156.042,323.918 155.936 C 324.468 155.830,324.500 153.630,324.500 116.079 L 324.500 76.333 200.750 76.333 C 132.688 76.333,76.992 76.371,76.981 76.417 M207.167 106.044 C 204.620 107.065,203.333 108.471,203.333 110.232 C 203.333 111.540,203.260 111.667,202.500 111.667 C 201.981 111.667,201.667 111.478,201.667 111.167 C 201.667 110.892,201.442 110.667,201.167 110.667 C 200.892 110.667,200.667 110.892,200.667 111.167 C 200.667 111.500,200.333 111.667,199.667 111.667 C 199.000 111.667,198.667 111.500,198.667 111.167 C 198.667 110.425,197.772 110.561,197.570 111.333 C 197.436 111.848,197.115 112.000,196.167 112.000 C 195.218 112.000,194.898 111.848,194.763 111.333 C 194.528 110.433,193.739 110.486,193.607 111.412 C 193.435 112.611,191.073 112.883,190.933 111.721 C 190.784 110.473,190.000 110.392,190.000 111.623 C 190.000 112.509,189.844 112.679,188.750 112.982 C 186.744 113.540,186.338 113.446,186.295 112.417 C 186.271 111.845,186.198 111.721,186.103 112.087 C 186.018 112.410,185.809 112.588,185.637 112.482 C 185.444 112.362,185.358 116.542,185.412 123.394 L 185.500 134.500 200.000 134.500 L 214.500 134.500 214.587 121.689 L 214.675 108.878 213.754 107.901 C 212.911 107.006,211.181 106.058,209.500 105.569 C 209.133 105.463,208.083 105.676,207.167 106.044 M210.594 107.184 C 213.103 108.232,213.667 109.127,213.667 112.062 C 213.667 114.618,213.651 114.667,212.833 114.667 C 212.037 114.667,212.000 114.578,212.000 112.667 L 212.000 110.667 209.000 110.667 L 206.000 110.667 206.000 112.500 C 206.000 114.233,205.955 114.333,205.167 114.333 C 203.772 114.333,203.905 109.868,205.341 108.493 C 207.200 106.711,208.617 106.358,210.594 107.184 M208.565 108.213 C 208.298 108.479,208.599 109.000,209.020 109.000 C 209.192 109.000,209.333 108.775,209.333 108.500 C 209.333 107.985,208.940 107.838,208.565 108.213 M211.000 113.210 L 211.000 114.754 209.750 114.547 C 209.063 114.434,208.162 114.339,207.750 114.337 C 207.098 114.334,207.000 114.159,207.000 113.000 L 207.000 111.667 209.000 111.667 L 211.000 111.667 211.000 113.210 M200.667 113.461 C 200.667 114.003,200.428 114.319,199.917 114.457 C 198.738 114.772,198.667 114.727,198.667 113.667 C 198.667 112.778,198.778 112.667,199.667 112.667 C 200.498 112.667,200.667 112.801,200.667 113.461 M203.273 113.587 C 203.353 114.148,203.213 114.333,202.710 114.333 C 201.912 114.333,201.533 113.829,201.803 113.126 C 202.088 112.383,203.149 112.715,203.273 113.587 M197.667 113.844 C 197.667 114.744,197.404 114.921,195.845 115.072 C 194.820 115.170,194.394 114.525,194.795 113.481 C 195.157 112.536,197.667 112.853,197.667 113.844 M193.667 114.467 C 193.667 115.545,192.660 116.333,191.284 116.333 C 190.830 116.333,190.954 113.741,191.417 113.554 C 192.832 112.983,193.667 113.322,193.667 114.467 M190.000 115.305 C 190.000 116.543,188.004 118.333,186.625 118.333 C 185.628 118.333,186.359 114.678,187.417 114.373 C 189.638 113.732,190.000 113.862,190.000 115.305 M205.009 116.266 C 200.617 119.685,196.567 124.415,193.144 130.126 L 191.121 133.500 188.810 133.500 L 186.500 133.500 186.403 130.920 L 186.305 128.339 189.156 125.382 C 194.176 120.175,201.666 115.332,204.667 115.354 L 206.167 115.365 205.009 116.266 M197.868 117.004 C 194.872 118.755,191.707 121.228,188.894 124.018 C 186.309 126.582,186.266 126.558,186.402 122.639 L 186.500 119.833 189.000 118.579 C 191.607 117.272,196.993 115.711,198.995 115.683 C 200.126 115.667,200.097 115.701,197.868 117.004 M207.238 119.297 C 204.478 122.943,202.093 127.115,200.643 130.833 C 199.505 133.752,199.640 133.667,196.181 133.667 C 192.544 133.667,192.498 133.637,193.385 131.899 C 196.867 125.074,205.835 115.667,208.860 115.667 L 209.987 115.667 207.238 119.297 M212.776 115.857 C 213.188 116.016,213.088 116.457,212.191 118.441 C 210.793 121.531,209.182 126.117,208.048 130.232 L 207.148 133.500 204.074 133.596 C 200.442 133.709,200.518 133.851,202.160 130.016 C 204.124 125.428,207.228 120.574,210.400 117.133 C 211.799 115.616,211.943 115.538,212.776 115.857 M213.512 133.256 C 213.388 133.578,212.691 133.670,210.921 133.598 L 208.500 133.500 208.598 132.569 C 208.746 131.170,211.614 122.450,212.620 120.344 L 213.500 118.500 213.590 125.658 C 213.640 129.596,213.604 133.015,213.512 133.256 M156.000 176.167 C 156.000 176.537,156.389 176.667,157.500 176.667 L 159.000 176.667 159.000 181.528 C 159.000 185.288,158.906 186.349,158.583 186.214 C 152.175 183.530,147.360 186.405,147.341 192.927 C 147.321 199.415,153.119 202.857,158.083 199.303 L 159.000 198.647 159.000 199.490 C 159.000 200.326,159.024 200.333,161.833 200.333 C 164.130 200.333,164.667 200.239,164.667 199.833 C 164.667 199.500,164.333 199.333,163.667 199.333 L 162.667 199.333 162.667 187.500 L 162.667 175.667 159.333 175.667 C 156.593 175.667,156.000 175.756,156.000 176.167 M230.657 177.769 C 220.700 180.006,219.014 194.853,228.204 199.377 C 232.324 201.405,237.868 200.721,240.660 197.840 C 242.092 196.363,241.676 195.539,240.212 196.952 C 236.797 200.251,230.902 200.162,228.588 196.775 C 225.203 191.821,226.083 181.837,230.108 179.537 C 233.919 177.358,239.462 179.226,240.205 182.939 C 240.352 183.679,240.606 184.000,241.042 184.000 C 241.609 184.000,241.667 183.707,241.667 180.833 C 241.667 177.533,241.089 176.513,240.338 178.488 L 240.026 179.308 238.263 178.508 C 236.079 177.516,233.081 177.225,230.657 177.769 M79.000 178.156 C 79.000 178.530,79.358 178.667,80.333 178.667 L 81.667 178.667 81.667 189.000 L 81.667 199.333 80.333 199.333 C 79.370 199.333,79.000 199.472,79.000 199.833 C 79.000 200.243,79.574 200.333,82.167 200.333 C 85.496 200.333,86.980 199.510,84.083 199.270 L 82.833 199.167 82.830 189.583 C 82.829 184.313,82.908 180.000,83.007 180.000 C 83.106 180.000,85.079 184.463,87.393 189.917 C 89.707 195.371,91.717 199.833,91.860 199.833 C 92.003 199.833,93.895 195.419,96.063 190.024 C 98.232 184.629,100.080 180.142,100.170 180.052 C 100.260 179.962,100.333 184.264,100.333 189.611 L 100.333 199.333 99.000 199.333 C 98.037 199.333,97.667 199.472,97.667 199.833 C 97.667 200.255,98.426 200.333,102.500 200.333 C 106.493 200.333,107.333 200.250,107.333 199.852 C 107.333 199.513,106.862 199.340,105.750 199.268 L 104.167 199.167 104.167 189.000 L 104.167 178.833 105.583 178.731 C 106.548 178.661,107.000 178.475,107.000 178.148 C 107.000 177.758,106.312 177.667,103.388 177.667 L 99.777 177.667 96.638 185.594 C 94.912 189.954,93.350 193.569,93.167 193.628 C 92.983 193.686,91.400 190.157,89.649 185.784 L 86.464 177.833 82.732 177.739 C 79.560 177.659,79.000 177.722,79.000 178.156 M248.074 178.852 C 246.245 180.133,248.009 183.057,249.955 181.970 C 251.163 181.295,251.339 179.608,250.278 178.865 C 249.331 178.202,249.005 178.200,248.074 178.852 M268.583 182.693 C 267.916 183.082,267.800 184.666,268.394 185.261 C 269.270 186.137,267.986 186.263,265.591 185.536 C 259.667 183.739,254.302 189.571,258.003 193.786 L 259.006 194.928 257.836 196.097 C 256.059 197.874,256.225 199.723,258.286 201.091 L 259.071 201.613 258.046 202.143 C 256.844 202.764,256.333 203.588,256.333 204.904 C 256.333 209.836,269.089 209.852,271.131 204.923 C 272.879 200.705,269.963 198.674,262.150 198.669 C 260.251 198.667,258.985 198.519,258.733 198.267 C 257.652 197.185,259.104 195.136,260.560 195.689 C 266.192 197.831,272.272 192.354,269.070 188.023 C 268.359 187.062,268.347 186.975,268.903 186.779 C 269.880 186.435,271.333 184.922,271.333 184.249 C 271.333 182.608,270.013 181.861,268.583 182.693 M116.196 185.357 C 109.452 187.021,108.532 196.515,114.802 199.742 C 117.329 201.042,122.205 200.466,123.825 198.676 C 124.773 197.629,124.079 197.207,122.960 198.149 C 119.292 201.235,115.056 199.264,114.460 194.195 L 114.242 192.333 119.659 192.333 L 125.076 192.333 124.838 190.750 C 124.200 186.491,120.630 184.263,116.196 185.357 M133.188 185.361 C 130.011 186.139,128.496 188.884,130.514 190.206 C 132.186 191.302,133.960 189.505,132.861 187.829 C 132.149 186.742,132.149 186.742,133.654 186.337 C 136.681 185.522,138.000 186.844,138.000 190.695 L 138.000 193.299 136.844 192.816 C 133.857 191.568,130.010 192.530,128.874 194.809 C 126.819 198.930,132.895 202.378,137.137 199.499 C 138.029 198.893,138.322 198.822,138.458 199.176 C 138.766 199.979,140.602 200.709,141.759 200.490 C 143.223 200.212,144.242 199.442,143.770 198.970 C 143.510 198.710,143.345 198.711,143.185 198.971 C 143.061 199.170,142.682 199.333,142.342 199.333 C 141.770 199.333,141.716 198.928,141.612 193.857 C 141.455 186.175,139.189 183.890,133.188 185.361 M172.407 185.474 C 165.136 187.827,165.553 198.547,172.985 200.330 C 180.469 202.125,185.579 192.712,180.114 187.196 C 178.319 185.385,174.985 184.639,172.407 185.474 M278.855 185.361 C 275.677 186.139,274.162 188.884,276.180 190.206 C 277.852 191.302,279.626 189.505,278.528 187.829 C 277.816 186.742,277.816 186.742,279.321 186.337 C 282.348 185.522,283.667 186.844,283.667 190.695 L 283.667 193.299 282.511 192.816 C 279.523 191.568,275.677 192.530,274.540 194.809 C 272.486 198.930,278.561 202.378,282.804 199.499 C 283.695 198.893,283.988 198.822,284.124 199.176 C 284.432 199.979,286.268 200.709,287.426 200.490 C 288.889 200.212,289.908 199.442,289.436 198.970 C 289.177 198.710,289.012 198.711,288.851 198.971 C 288.728 199.170,288.349 199.333,288.009 199.333 C 287.436 199.333,287.382 198.928,287.279 193.857 C 287.122 186.175,284.856 183.890,278.855 185.361 M301.524 185.496 C 300.804 185.752,299.792 186.275,299.274 186.658 L 298.333 187.353 298.333 186.343 L 298.333 185.333 295.333 185.333 C 292.253 185.333,290.792 186.143,293.417 186.396 L 294.500 186.500 294.500 192.833 L 294.500 199.167 293.417 199.271 C 292.746 199.336,292.333 199.558,292.333 199.854 C 292.333 200.247,293.144 200.333,296.833 200.333 C 300.611 200.333,301.333 200.253,301.333 199.833 C 301.333 199.463,300.944 199.333,299.833 199.333 L 298.333 199.333 298.333 194.058 C 298.333 188.320,298.383 188.164,300.561 187.042 C 301.324 186.649,302.252 186.526,301.916 186.862 C 300.894 187.884,303.300 189.650,304.576 188.814 C 307.149 187.128,304.630 184.389,301.524 185.496 M312.580 185.463 C 307.470 187.340,308.357 192.380,314.185 194.582 C 318.143 196.077,319.282 197.405,317.750 198.737 C 315.835 200.401,310.333 198.712,310.333 196.460 C 310.333 196.207,310.033 196.000,309.667 196.000 C 309.068 196.000,309.000 196.222,309.000 198.167 C 309.000 200.442,309.563 201.058,310.487 199.794 C 310.841 199.310,310.982 199.306,311.857 199.750 C 315.794 201.745,320.667 199.746,320.667 196.136 C 320.667 194.012,319.302 192.655,315.667 191.165 C 311.863 189.606,310.908 188.425,312.315 187.019 C 313.849 185.484,317.139 186.018,318.258 187.984 C 319.262 189.749,320.000 189.332,320.000 187.000 C 320.000 184.875,319.407 184.283,318.667 185.667 C 318.345 186.267,318.237 186.286,317.572 185.859 C 316.436 185.130,314.011 184.938,312.580 185.463 M184.333 185.794 C 184.333 186.048,184.596 186.326,184.917 186.413 C 185.302 186.517,186.568 188.960,188.650 193.619 C 191.063 199.019,191.940 200.667,192.400 200.667 C 192.730 200.667,193.000 200.537,193.000 200.378 C 193.000 200.219,193.889 197.932,194.975 195.295 L 196.950 190.500 199.371 195.596 C 201.071 199.174,201.941 200.663,202.293 200.595 C 202.609 200.534,203.730 198.036,205.328 193.829 C 208.230 186.191,208.160 186.333,209.020 186.333 C 209.376 186.333,209.667 186.108,209.667 185.833 C 209.667 185.437,209.189 185.333,207.369 185.333 C 205.634 185.333,205.024 185.456,204.879 185.833 C 204.731 186.220,204.957 186.333,205.879 186.333 C 206.695 186.333,207.021 186.465,206.913 186.750 C 206.826 186.979,206.033 189.079,205.151 191.417 C 204.268 193.754,203.461 195.663,203.357 195.659 C 203.252 195.655,202.164 193.368,200.939 190.576 C 198.123 184.157,198.245 184.161,195.811 190.405 C 194.719 193.207,193.677 195.425,193.497 195.333 C 193.061 195.112,189.361 186.750,189.595 186.516 C 189.696 186.415,190.053 186.333,190.389 186.333 C 190.725 186.333,191.000 186.108,191.000 185.833 C 191.000 185.422,190.407 185.333,187.667 185.333 C 185.051 185.333,184.333 185.433,184.333 185.794 M245.333 185.833 C 245.333 186.167,245.667 186.333,246.333 186.333 L 247.333 186.333 247.333 192.833 L 247.333 199.333 246.167 199.333 C 245.352 199.333,245.000 199.484,245.000 199.833 C 245.000 200.251,245.685 200.333,249.167 200.333 C 252.566 200.333,253.333 200.245,253.333 199.854 C 253.333 199.558,252.921 199.336,252.250 199.271 L 251.167 199.167 251.077 192.250 L 250.986 185.333 248.160 185.333 C 245.870 185.333,245.333 185.428,245.333 185.833 M120.063 186.892 C 120.727 187.490,121.483 190.651,121.062 191.071 C 120.904 191.230,119.362 191.316,117.637 191.263 L 114.500 191.167 114.613 190.167 C 114.995 186.797,117.971 185.008,120.063 186.892 M156.306 186.325 C 158.776 187.034,159.000 187.564,159.000 192.701 C 159.000 197.256,158.995 197.289,158.122 197.976 C 153.922 201.280,150.309 197.585,151.150 190.848 C 151.594 187.301,153.593 185.547,156.306 186.325 M176.126 186.461 C 179.731 187.968,179.065 198.680,175.316 199.504 C 172.607 200.099,171.184 197.864,171.174 193.000 C 171.162 187.314,172.846 185.091,176.126 186.461 M265.551 187.147 C 267.803 189.704,266.449 195.000,263.542 195.000 C 261.130 195.000,260.327 193.894,260.345 190.600 C 260.368 186.536,263.299 184.591,265.551 187.147 M137.178 193.872 C 138.551 194.771,138.387 197.774,136.917 198.670 C 134.033 200.428,131.468 198.455,132.373 195.176 C 132.882 193.335,135.340 192.667,137.178 193.872 M282.845 193.872 C 284.218 194.771,284.054 197.774,282.583 198.670 C 279.700 200.428,277.135 198.455,278.040 195.176 C 278.548 193.335,281.007 192.667,282.845 193.872 M268.182 202.485 C 270.957 205.260,266.770 208.440,261.806 207.327 C 259.650 206.844,259.000 206.212,259.000 204.600 C 259.000 202.248,259.991 201.667,264.000 201.667 C 267.127 201.667,267.421 201.724,268.182 202.485 M76.333 241.942 L 76.333 255.883 90.417 263.661 C 98.162 267.939,109.525 274.205,115.667 277.586 C 121.808 280.967,129.083 284.976,131.833 286.493 C 134.583 288.011,139.758 290.864,143.333 292.833 C 146.908 294.803,152.083 297.653,154.833 299.169 C 157.583 300.684,162.008 303.119,164.667 304.581 C 167.325 306.043,176.475 311.075,185.000 315.762 C 193.525 320.450,200.654 324.334,200.841 324.393 C 201.214 324.510,202.604 323.751,232.667 307.002 C 243.942 300.721,269.067 286.735,288.500 275.923 C 307.933 265.111,323.983 256.143,324.167 255.994 C 324.842 255.446,324.598 228.195,323.917 228.063 C 323.369 227.958,323.333 228.780,323.333 241.566 L 323.333 255.182 289.083 274.231 C 270.246 284.709,243.058 299.829,228.667 307.833 C 214.275 315.836,202.187 322.585,201.804 322.831 C 201.174 323.235,200.664 323.032,196.471 320.705 C 193.920 319.290,188.608 316.358,184.667 314.189 C 180.725 312.020,176.075 309.458,174.333 308.494 C 172.592 307.531,167.267 304.604,162.500 301.990 C 157.733 299.376,151.658 296.037,149.000 294.571 C 146.342 293.105,141.242 290.298,137.667 288.333 C 134.092 286.368,128.917 283.518,126.167 282.000 C 123.417 280.482,118.242 277.632,114.667 275.667 C 111.092 273.702,105.917 270.852,103.167 269.333 C 100.417 267.815,95.017 264.852,91.167 262.749 C 80.537 256.942,78.199 255.610,77.815 255.143 C 77.576 254.853,77.503 250.424,77.587 241.358 C 77.711 228.037,77.710 228.000,77.023 228.000 C 76.337 228.000,76.333 228.070,76.333 241.942 " stroke="none" fill="#444c5c" fill-rule="evenodd"></path><path id="path4" d="" stroke="none" fill="#746080" fill-rule="evenodd"></path></g></svg>